<svg width="177" height="128" viewBox="0 0 177 128" fill="none" xmlns="http://www.w3.org/2000/svg">
<path d="M152.829 42.6707C154.782 53.1502 142.965 68.2625 133.738 71.0772C136.572 75.8556 143.36 76.2314 146.734 71.9064C147.378 71.0784 148.51 70.854 149.408 71.3189C156.335 74.617 166.883 74.8564 171.151 67.3304C177.554 56.0367 163.622 43.7577 152.829 42.6707ZM152.173 1.69836C153.5 -0.792591 157.283 1.22769 155.957 3.71864L152.129 10.8874C156.255 12.371 159.906 15.2112 162.25 18.9349L168.342 14.034C170.54 12.2635 173.23 15.6137 171.034 17.3842L164.13 22.9385C166.142 29.1659 164.268 35.7911 158.916 39.6108C170.545 43.4651 181.795 57.266 174.884 69.4513C169.721 78.5512 157.828 79.466 148.972 75.8197C142.879 81.7037 132.648 79.7204 129.296 71.7722C127.782 71.7745 126.29 71.5247 124.856 70.9997L120.997 73.4676C119.134 74.6564 116.94 72.5644 117.953 70.6505L119.637 67.4599C118.784 66.4908 118.074 65.3853 117.507 64.1722C108.861 65.9889 101.091 58.1876 103.128 49.4589C95.4905 43.7219 90.1635 32.9994 95.3254 23.9007C102.737 11.2239 120.924 14.5128 130.069 23.2496C130.231 21.1888 130.825 19.1628 131.888 17.287C135.106 11.6136 141.542 9.13767 147.81 9.86969L152.173 1.69836ZM153.88 24.5621C154.823 24.5621 155.587 25.3288 155.587 26.2736C155.587 27.2185 154.823 27.984 153.88 27.984C152.936 27.984 152.172 27.2185 152.172 26.2736C152.172 25.3288 152.936 24.5621 153.88 24.5621ZM143.726 18.2885C144.669 18.2885 145.433 19.0541 145.433 20C145.433 20.9448 144.669 21.7104 143.726 21.7104C142.782 21.7104 142.017 20.9448 142.017 20C142.017 19.0541 142.782 18.2885 143.726 18.2885ZM143.795 28.8409C144.738 28.8409 145.502 29.6065 145.502 30.5513C145.502 31.4961 144.738 32.2616 143.795 32.2616C142.852 32.2616 142.087 31.4961 142.087 30.5513C142.087 29.6065 142.852 28.8409 143.795 28.8409ZM120.561 51.9036C121.656 58.6063 132.71 64.0808 139.092 62.9521C139.949 62.212 140.779 61.3863 141.567 60.4855C134.405 59.7858 125.506 54.8132 121.369 48.846C121.032 49.8024 120.763 50.9079 120.561 51.9036ZM132.342 66.825C128.051 65.7646 123.768 63.3939 120.645 60.2438C122.276 66.4295 126.782 68.4683 132.342 66.825ZM123.61 43.8109C125.296 50.3575 137.896 56.978 144.438 56.1974V56.1963L144.66 56.1685V56.1674L144.71 56.0806L144.746 56.017L144.833 55.8667L144.9 55.7476L144.967 55.6285C145.614 54.4616 146.167 53.2774 146.626 52.0921C139.169 52.0042 129.65 46.8188 126.083 40.1369C125.17 41.313 124.379 42.518 123.61 43.8109ZM129.286 36.7682C131.195 42.9841 141.63 48.3453 147.892 47.7381C148.247 45.933 148.376 44.1821 148.286 42.5423C142.105 42.1977 136.626 38.9805 133.154 34.0668C132 34.6844 130.205 35.8477 129.286 36.7682ZM118.639 44.1104C121.228 38.5133 125.269 33.6864 130.55 30.5964C124.454 20.6881 106.904 14.3728 98.9829 26.158C94.8693 33.6598 100.404 42.4856 106.728 46.7448C107.61 47.3426 108.033 48.336 107.634 49.3733C105.432 55.0664 110.267 60.9538 116.196 60.0368C115.211 54.7218 116.382 48.9605 118.639 44.1104ZM140.893 35.6916C146.65 39.4708 156.439 39.5657 159.707 32.2408C161.866 27.407 160.017 20.8338 154.547 16.9528C148.786 12.8718 139.469 12.6243 135.621 19.4079C132.195 25.4503 135.736 32.2975 140.893 35.6916Z" fill="#FDBE41"/>
<path d="M15.0726 99.4569H2.65987C1.95443 99.4569 1.27788 99.1762 0.779058 98.6766C0.280236 98.177 0 97.4994 0 96.7929V13.3199C0 12.6134 0.280236 11.9358 0.779058 11.4362C1.27788 10.9366 1.95443 10.6559 2.65987 10.6559H15.0726C15.778 10.6559 16.4546 10.9366 16.9534 11.4362C17.4522 11.9358 17.7325 12.6134 17.7325 13.3199V96.7929C17.7325 97.4994 17.4522 98.177 16.9534 98.6766C16.4546 99.1762 15.778 99.4569 15.0726 99.4569ZM49.6509 39.0722V27.5281C49.6509 26.8215 49.3707 26.1439 48.8718 25.6443C48.373 25.1447 47.6965 24.864 46.991 24.864H23.9388C23.2334 24.864 22.5568 25.1447 22.058 25.6443C21.5592 26.1439 21.279 26.8215 21.279 27.5281V39.0722H49.6509ZM21.279 85.2488V96.7929C21.279 97.4994 21.5592 98.177 22.058 98.6766C22.5568 99.1762 23.2334 99.4569 23.9388 99.4569H46.991C47.6965 99.4569 48.373 99.1762 48.8718 98.6766C49.3707 98.177 49.6509 97.4994 49.6509 96.7929V85.2488H21.279ZM21.279 46.1763H49.6509V78.1447H21.279V46.1763ZM71.8165 99.4569H55.8573C55.1518 99.4569 54.4753 99.1762 53.9765 98.6766C53.4776 98.177 53.1974 97.4994 53.1974 96.7929V2.66379C53.1974 1.95724 53.4776 1.27963 53.9765 0.780032C54.4753 0.280429 55.1518 -0.000244141 55.8573 -0.000244141H71.8165C72.5219 -0.000244141 73.1985 0.280429 73.6973 0.780032C74.1961 1.27963 74.4764 1.95724 74.4764 2.66379V96.7929C74.4764 97.4994 74.1961 98.177 73.6973 98.6766C73.1985 99.1762 72.5219 99.4569 71.8165 99.4569ZM78.2445 15.2513L84.8942 96.9106C84.9237 97.2686 85.0252 97.6171 85.1926 97.9348C85.3601 98.2526 85.59 98.5331 85.8685 98.7596C86.147 98.9861 86.4684 99.1538 86.8133 99.2526C87.1582 99.3515 87.5195 99.3795 87.8755 99.3348L103.87 97.3368C104.551 97.2515 105.173 96.9059 105.605 96.3722C106.038 95.8385 106.248 95.158 106.191 94.473L99.5235 13.1445C99.4941 12.7913 99.3947 12.4475 99.2309 12.1332C99.0672 11.819 98.8425 11.5406 98.5701 11.3144C98.2976 11.0882 97.9828 10.9188 97.6441 10.816C97.3054 10.7132 96.9496 10.6792 96.5976 10.7158L80.6096 12.3831C79.9197 12.4577 79.2863 12.7994 78.8444 13.3353C78.4026 13.8711 78.1873 14.5587 78.2445 15.2513Z" fill="#8BC7D7"/>
<circle cx="139.89" cy="16.0703" r="9.17543" transform="rotate(34.2527 139.89 16.0703)" stroke="#FF6B6B" stroke-width="3.37057"/>
<circle cx="158.691" cy="28.9043" r="9.17543" transform="rotate(34.2527 158.691 28.9043)" stroke="#FF6B6B" stroke-width="3.37057"/>
<path d="M146.455 22.3114C147.41 21.9447 148.323 22.0689 149.049 22.3532C149.58 22.5609 149.89 23.1309 150.239 23.5785C150.456 23.8566 150.755 24.2598 150.863 24.6127" stroke="#FF6B6B" stroke-width="2.39497" stroke-linecap="round"/>
<rect x="108.447" y="78.6639" width="61.2476" height="20.7905" rx="2.24762" fill="#8BC7D7"/>
<rect x="164.076" y="79.2284" width="1.12381" height="19.6667" fill="white"/>
<rect x="114.629" y="79.2284" width="1.12381" height="19.6667" fill="white"/>
<path d="M9.12709 122.032V124.234H1.96552V112.35H4.72248V122.032H9.12709ZM17.6409 115.776V124.234H15.1123V115.776H17.6409ZM17.9019 113.459C17.9019 113.661 17.8611 113.851 17.7795 114.03C17.698 114.204 17.5865 114.359 17.4451 114.495C17.3037 114.626 17.1379 114.732 16.9476 114.813C16.7627 114.89 16.5642 114.928 16.3521 114.928C16.1455 114.928 15.9524 114.89 15.773 114.813C15.5936 114.732 15.4331 114.626 15.2918 114.495C15.1558 114.359 15.0471 114.204 14.9655 114.03C14.8894 113.851 14.8513 113.661 14.8513 113.459C14.8513 113.253 14.8894 113.06 14.9655 112.88C15.0471 112.701 15.1558 112.543 15.2918 112.407C15.4331 112.271 15.5936 112.165 15.773 112.089C15.9524 112.013 16.1455 111.975 16.3521 111.975C16.5642 111.975 16.7627 112.013 16.9476 112.089C17.1379 112.165 17.3037 112.271 17.4451 112.407C17.5865 112.543 17.698 112.701 17.7795 112.88C17.8611 113.06 17.9019 113.253 17.9019 113.459ZM26.7454 121.934C26.9357 122.141 27.1424 122.288 27.3653 122.375C27.5883 122.462 27.8139 122.505 28.0423 122.505C28.2816 122.505 28.5018 122.462 28.703 122.375C28.9042 122.282 29.0755 122.135 29.2169 121.934C29.3637 121.728 29.4779 121.458 29.5594 121.127C29.641 120.79 29.6818 120.376 29.6818 119.887C29.6818 119.463 29.6492 119.104 29.5839 118.81C29.5241 118.511 29.4317 118.269 29.3066 118.084C29.187 117.894 29.0347 117.758 28.8498 117.676C28.6704 117.589 28.4637 117.546 28.2299 117.546C27.92 117.546 27.6508 117.614 27.4224 117.75C27.194 117.886 26.9683 118.084 26.7454 118.345V121.934ZM26.7454 116.673C27.0717 116.363 27.4278 116.116 27.8139 115.931C28.2054 115.741 28.6405 115.645 29.119 115.645C29.5975 115.645 30.0325 115.743 30.4241 115.939C30.8156 116.135 31.15 116.415 31.4273 116.779C31.7047 117.138 31.9167 117.573 32.0636 118.084C32.2158 118.595 32.2919 119.166 32.2919 119.797C32.2919 120.482 32.2049 121.105 32.0309 121.665C31.8569 122.225 31.6095 122.706 31.2887 123.109C30.9733 123.506 30.5953 123.816 30.1549 124.039C29.7144 124.256 29.2277 124.365 28.6948 124.365C28.4393 124.365 28.2109 124.34 28.0097 124.291C27.8085 124.243 27.6236 124.175 27.455 124.088C27.2865 123.995 27.1315 123.886 26.9901 123.761C26.8541 123.636 26.7209 123.5 26.5904 123.353L26.5007 123.778C26.4572 123.952 26.3865 124.071 26.2886 124.136C26.1907 124.202 26.0602 124.234 25.8971 124.234H24.2168V112.024H26.7454V116.673ZM40.7621 117.081C41.0232 116.624 41.3222 116.265 41.6594 116.004C42.002 115.743 42.3935 115.613 42.8339 115.613C43.2146 115.613 43.5245 115.702 43.7638 115.882L43.6007 117.742C43.5735 117.861 43.5273 117.943 43.462 117.986C43.4022 118.03 43.3179 118.052 43.2091 118.052C43.1656 118.052 43.1085 118.049 43.0379 118.043C42.9672 118.038 42.8938 118.033 42.8176 118.027C42.7415 118.016 42.6626 118.008 42.5811 118.003C42.505 117.992 42.4343 117.986 42.369 117.986C41.9992 117.986 41.7029 118.084 41.4799 118.28C41.2624 118.476 41.0775 118.748 40.9253 119.096V124.234H38.3967V115.776H39.8975C40.0226 115.776 40.1259 115.787 40.2075 115.809C40.2945 115.83 40.3652 115.866 40.4196 115.915C40.4794 115.958 40.5229 116.018 40.5501 116.094C40.5827 116.17 40.6099 116.263 40.6316 116.371L40.7621 117.081ZM53.7223 120.792C53.2166 120.814 52.8006 120.858 52.4744 120.923C52.1481 120.988 51.8898 121.07 51.6995 121.167C51.5092 121.265 51.3759 121.377 51.2998 121.502C51.2291 121.627 51.1938 121.763 51.1938 121.91C51.1938 122.198 51.2726 122.402 51.4303 122.521C51.588 122.636 51.8191 122.693 52.1236 122.693C52.4499 122.693 52.7354 122.636 52.9801 122.521C53.2248 122.407 53.4722 122.222 53.7223 121.967V120.792ZM49.1709 116.95C49.6821 116.499 50.2476 116.165 50.8675 115.947C51.4929 115.724 52.1617 115.613 52.874 115.613C53.3852 115.613 53.8447 115.697 54.2525 115.866C54.6658 116.029 55.0138 116.26 55.2966 116.559C55.5848 116.853 55.805 117.203 55.9573 117.611C56.1095 118.019 56.1857 118.465 56.1857 118.949V124.234H55.0274C54.7882 124.234 54.606 124.202 54.4809 124.136C54.3613 124.071 54.2607 123.935 54.1791 123.729L53.9997 123.264C53.7876 123.443 53.5837 123.601 53.3879 123.737C53.1922 123.873 52.9882 123.99 52.7762 124.088C52.5695 124.18 52.3466 124.248 52.1073 124.291C51.8735 124.34 51.6125 124.365 51.3243 124.365C50.9382 124.365 50.5875 124.316 50.2721 124.218C49.9567 124.115 49.6875 123.965 49.4646 123.769C49.247 123.574 49.0785 123.332 48.9588 123.043C48.8392 122.75 48.7794 122.413 48.7794 122.032C48.7794 121.728 48.8555 121.42 49.0078 121.11C49.16 120.795 49.4238 120.509 49.799 120.254C50.1742 119.993 50.6799 119.775 51.3161 119.601C51.9523 119.427 52.7544 119.329 53.7223 119.308V118.949C53.7223 118.454 53.619 118.098 53.4124 117.88C53.2112 117.657 52.923 117.546 52.5478 117.546C52.2487 117.546 52.004 117.579 51.8137 117.644C51.6234 117.709 51.4521 117.782 51.2998 117.864C51.153 117.946 51.0089 118.019 50.8675 118.084C50.7261 118.149 50.5576 118.182 50.3618 118.182C50.1878 118.182 50.041 118.139 49.9213 118.052C49.8017 117.965 49.7038 117.861 49.6277 117.742L49.1709 116.95ZM64.9798 117.081C65.2409 116.624 65.5399 116.265 65.8771 116.004C66.2197 115.743 66.6112 115.613 67.0516 115.613C67.4323 115.613 67.7422 115.702 67.9815 115.882L67.8184 117.742C67.7912 117.861 67.745 117.943 67.6797 117.986C67.6199 118.03 67.5356 118.052 67.4268 118.052C67.3833 118.052 67.3262 118.049 67.2556 118.043C67.1849 118.038 67.1115 118.033 67.0353 118.027C66.9592 118.016 66.8803 118.008 66.7988 118.003C66.7227 117.992 66.652 117.986 66.5867 117.986C66.2169 117.986 65.9206 118.084 65.6976 118.28C65.4801 118.476 65.2952 118.748 65.143 119.096V124.234H62.6144V115.776H64.1152C64.2403 115.776 64.3436 115.787 64.4252 115.809C64.5122 115.83 64.5829 115.866 64.6373 115.915C64.6971 115.958 64.7406 116.018 64.7678 116.094C64.8004 116.17 64.8276 116.263 64.8493 116.371L64.9798 117.081ZM81.6902 115.776L77.1714 126.429C77.0953 126.597 77.0028 126.719 76.8941 126.796C76.7853 126.877 76.6113 126.918 76.3721 126.918H74.4797L76.111 123.492L72.7342 115.776H74.9691C75.1649 115.776 75.3144 115.819 75.4177 115.906C75.5265 115.993 75.6053 116.097 75.6543 116.216L77.0409 119.862C77.1714 120.194 77.2774 120.534 77.359 120.882C77.4188 120.708 77.4786 120.534 77.5385 120.36C77.5983 120.186 77.6608 120.015 77.7261 119.846L78.9822 116.216C79.0311 116.091 79.1181 115.988 79.2432 115.906C79.3683 115.819 79.5042 115.776 79.651 115.776H81.6902ZM100.412 122.154C100.776 122.154 101.073 122.108 101.301 122.016C101.535 121.923 101.717 121.804 101.848 121.657C101.978 121.51 102.068 121.344 102.117 121.159C102.166 120.974 102.19 120.787 102.19 120.596C102.19 120.379 102.16 120.183 102.101 120.009C102.046 119.835 101.948 119.688 101.807 119.569C101.671 119.449 101.489 119.357 101.26 119.291C101.032 119.226 100.744 119.194 100.396 119.194H98.4708V122.154H100.412ZM98.4708 114.414V117.35H99.9064C100.211 117.35 100.485 117.328 100.73 117.285C100.975 117.241 101.182 117.165 101.35 117.056C101.524 116.948 101.655 116.798 101.742 116.608C101.834 116.418 101.88 116.178 101.88 115.89C101.88 115.607 101.845 115.373 101.774 115.189C101.704 114.998 101.595 114.846 101.448 114.732C101.301 114.618 101.114 114.536 100.885 114.487C100.662 114.438 100.396 114.414 100.086 114.414H98.4708ZM100.086 112.35C100.907 112.35 101.606 112.426 102.182 112.578C102.758 112.731 103.229 112.946 103.593 113.223C103.958 113.5 104.221 113.837 104.384 114.234C104.553 114.631 104.637 115.074 104.637 115.564C104.637 115.83 104.599 116.089 104.523 116.339C104.447 116.583 104.327 116.815 104.164 117.032C104.001 117.244 103.792 117.44 103.536 117.619C103.281 117.799 102.973 117.954 102.614 118.084C103.397 118.275 103.977 118.582 104.352 119.006C104.727 119.43 104.915 119.979 104.915 120.654C104.915 121.159 104.817 121.63 104.621 122.065C104.425 122.5 104.137 122.88 103.756 123.207C103.381 123.527 102.916 123.78 102.362 123.965C101.807 124.145 101.173 124.234 100.461 124.234H95.7138V112.35H100.086ZM116.311 118.99C116.311 118.788 116.284 118.593 116.229 118.402C116.18 118.212 116.096 118.043 115.976 117.897C115.862 117.744 115.71 117.622 115.52 117.53C115.329 117.437 115.098 117.391 114.826 117.391C114.348 117.391 113.973 117.53 113.701 117.807C113.429 118.079 113.249 118.473 113.162 118.99H116.311ZM113.13 120.458C113.211 121.165 113.426 121.679 113.774 121.999C114.122 122.315 114.571 122.473 115.12 122.473C115.414 122.473 115.666 122.437 115.879 122.366C116.091 122.296 116.278 122.217 116.441 122.13C116.61 122.043 116.762 121.964 116.898 121.893C117.04 121.823 117.186 121.787 117.339 121.787C117.54 121.787 117.692 121.861 117.795 122.008L118.529 122.913C118.268 123.212 117.986 123.457 117.681 123.647C117.382 123.832 117.072 123.979 116.751 124.088C116.436 124.191 116.118 124.262 115.797 124.3C115.482 124.343 115.18 124.365 114.892 124.365C114.299 124.365 113.742 124.27 113.219 124.079C112.703 123.884 112.249 123.595 111.857 123.215C111.471 122.834 111.164 122.361 110.936 121.796C110.713 121.23 110.601 120.572 110.601 119.822C110.601 119.256 110.696 118.72 110.887 118.215C111.082 117.709 111.36 117.266 111.719 116.885C112.083 116.505 112.521 116.203 113.032 115.98C113.548 115.757 114.13 115.645 114.777 115.645C115.337 115.645 115.849 115.732 116.311 115.906C116.779 116.08 117.178 116.333 117.51 116.665C117.847 116.997 118.108 117.405 118.293 117.888C118.483 118.367 118.578 118.911 118.578 119.52C118.578 119.71 118.57 119.865 118.554 119.985C118.538 120.104 118.508 120.2 118.464 120.27C118.421 120.341 118.361 120.39 118.285 120.417C118.214 120.444 118.122 120.458 118.007 120.458H113.13ZM140.058 112.35L136.387 124.234H133.891L131.656 116.869C131.613 116.755 131.572 116.63 131.534 116.494C131.496 116.352 131.458 116.205 131.42 116.053C131.382 116.205 131.343 116.352 131.305 116.494C131.267 116.63 131.227 116.755 131.183 116.869L128.915 124.234H126.42L122.749 112.35H125.066C125.305 112.35 125.503 112.404 125.661 112.513C125.824 112.622 125.93 112.766 125.979 112.946L127.61 119.145C127.659 119.34 127.708 119.555 127.757 119.789C127.806 120.017 127.855 120.257 127.904 120.507C128.002 119.996 128.122 119.542 128.263 119.145L130.188 112.946C130.237 112.793 130.34 112.657 130.498 112.538C130.661 112.413 130.857 112.35 131.085 112.35H131.901C132.14 112.35 132.333 112.407 132.48 112.521C132.627 112.63 132.738 112.772 132.814 112.946L134.723 119.145C134.864 119.525 134.984 119.958 135.082 120.442C135.125 120.197 135.169 119.968 135.212 119.756C135.261 119.539 135.31 119.335 135.359 119.145L136.991 112.946C137.034 112.788 137.137 112.649 137.301 112.53C137.464 112.41 137.659 112.35 137.888 112.35H140.058ZM149.96 118.99C149.96 118.788 149.933 118.593 149.878 118.402C149.829 118.212 149.745 118.043 149.625 117.897C149.511 117.744 149.359 117.622 149.169 117.53C148.978 117.437 148.747 117.391 148.475 117.391C147.997 117.391 147.621 117.53 147.35 117.807C147.078 118.079 146.898 118.473 146.811 118.99H149.96ZM146.779 120.458C146.86 121.165 147.075 121.679 147.423 121.999C147.771 122.315 148.22 122.473 148.769 122.473C149.062 122.473 149.315 122.437 149.527 122.366C149.739 122.296 149.927 122.217 150.09 122.13C150.259 122.043 150.411 121.964 150.547 121.893C150.688 121.823 150.835 121.787 150.987 121.787C151.189 121.787 151.341 121.861 151.444 122.008L152.178 122.913C151.917 123.212 151.635 123.457 151.33 123.647C151.031 123.832 150.721 123.979 150.4 124.088C150.085 124.191 149.767 124.262 149.446 124.3C149.13 124.343 148.829 124.365 148.54 124.365C147.948 124.365 147.39 124.27 146.868 124.079C146.352 123.884 145.898 123.595 145.506 123.215C145.12 122.834 144.813 122.361 144.584 121.796C144.362 121.23 144.25 120.572 144.25 119.822C144.25 119.256 144.345 118.72 144.536 118.215C144.731 117.709 145.009 117.266 145.368 116.885C145.732 116.505 146.17 116.203 146.681 115.98C147.197 115.757 147.779 115.645 148.426 115.645C148.986 115.645 149.498 115.732 149.96 115.906C150.427 116.08 150.827 116.333 151.159 116.665C151.496 116.997 151.757 117.405 151.942 117.888C152.132 118.367 152.227 118.911 152.227 119.52C152.227 119.71 152.219 119.865 152.203 119.985C152.186 120.104 152.157 120.2 152.113 120.27C152.07 120.341 152.01 120.39 151.934 120.417C151.863 120.444 151.771 120.458 151.656 120.458H146.779ZM160.834 112.024V124.234H158.305V112.024H160.834ZM169.884 112.024V124.234H167.355V112.024H169.884Z" fill="#545454"/>
</svg>
