<svg width="534" height="506" viewBox="0 0 534 506" fill="none" xmlns="http://www.w3.org/2000/svg">
	<path d="M65.9222 248.36L49.6886 248.694L41.448 248.842C38.6888 248.842 35.9172 248.842 33.158 248.904H32.6135V248.36L32.5393 234.514V233.883H33.158L49.5401 233.957C55.009 233.957 60.4656 234.093 65.9222 234.155H66.2686V234.489C66.2686 236.828 66.1573 239.166 66.1078 241.48L65.9222 248.36ZM65.9222 248.36L65.749 241.356C65.749 239.055 65.6129 236.778 65.5881 234.514L65.9222 234.848C60.4656 234.91 55.009 235.046 49.5401 235.046L33.158 235.133L33.7766 234.514V248.36L33.2198 247.803C35.9172 247.803 38.6145 247.803 41.3243 247.803L49.4658 247.951L65.9222 248.36Z" fill="#8BC7D7" fill-opacity="0.6"/>
	<path d="M47.6468 265.813L31.4132 266.147L23.1726 266.295C20.4134 266.295 17.6418 266.295 14.8826 266.357H14.3382V265.813L14.2639 251.967V251.373H14.8826L31.2647 251.447C36.7213 251.447 42.1902 251.583 47.6468 251.645H47.9932V251.979C47.9932 254.318 47.8943 256.656 47.8324 258.97L47.6468 265.813ZM47.6468 265.813L47.4736 258.797C47.4117 256.496 47.3375 254.219 47.3127 251.955L47.6468 252.289C42.1902 252.351 36.7213 252.487 31.2647 252.487L14.8826 252.61L15.5012 252.004L15.4394 265.85L14.8826 265.293C17.5799 265.293 20.2773 265.293 22.987 265.355L31.1286 265.503L47.6468 265.813Z" fill="#8BC7D7" fill-opacity="0.6"/>
	<path d="M518.871 265.813L502.625 266.147L494.385 266.295C491.638 266.295 488.866 266.295 486.107 266.357H485.55V265.813L485.488 251.967V251.373H486.107L502.489 251.447C507.946 251.447 513.415 251.583 518.871 251.645H519.205V251.979C519.205 254.318 519.106 256.656 519.044 258.97L518.871 265.813ZM518.871 265.813L518.698 258.809C518.698 256.508 518.549 254.231 518.537 251.967L518.871 252.301C513.415 252.363 507.946 252.499 502.489 252.499L486.107 252.573L486.726 251.967L486.651 265.813L486.107 265.256C488.804 265.256 491.502 265.256 494.199 265.318L502.341 265.466L518.871 265.813Z" fill="#8BC7D7" fill-opacity="0.6"/>
	<path d="M500.598 20.2455L484.352 20.5919L476.111 20.728C473.364 20.728 470.593 20.728 467.833 20.8023H467.326V20.2455V6.39986V5.7812H467.957L484.339 5.85545C489.796 5.85545 495.252 6.00393 500.721 6.06579H501.056V6.38749C501.056 8.7384 500.944 11.0769 500.895 13.3783L500.598 20.2455ZM500.598 20.2455L500.424 13.2546C500.363 10.9408 500.276 8.66416 500.251 6.39986L500.598 6.73394C495.129 6.73394 489.672 6.93191 484.216 6.94429L467.833 7.01852L468.452 6.39986L468.378 20.2455L467.833 19.6887C470.531 19.6887 473.216 19.6887 475.926 19.7629L484.067 19.899L500.598 20.2455Z" fill="#8BC7D7" fill-opacity="0.6"/>
	<path d="M518.871 37.7005L502.625 38.047L494.384 38.1831C491.638 38.1831 488.866 38.1831 486.107 38.2573H485.55V37.7005L485.488 23.8549V23.2363H486.107L502.489 23.3105C507.945 23.3105 513.414 23.459 518.871 23.5208H519.205V23.8549C519.205 26.2058 519.106 28.5444 519.044 30.8458L518.871 37.7005ZM518.871 37.7005L518.698 30.7097C518.698 28.3959 518.549 26.1192 518.537 23.8549L518.871 24.189C513.414 24.189 507.945 24.387 502.489 24.3994L486.107 24.4736L486.725 23.8549L486.651 37.7005L486.107 37.1437C488.804 37.1437 491.501 37.1437 494.199 37.218L502.34 37.3541L518.871 37.7005Z" fill="#8BC7D7" fill-opacity="0.6"/>
	<path d="M47.6468 20.2442L31.4132 20.5906L23.1231 20.7267C20.3639 20.7267 17.5923 20.7267 14.8331 20.801H14.3382V20.2442L14.2639 6.38619V5.76753H14.8826L31.2647 5.84177C36.7213 5.84177 42.1902 5.99025 47.6468 6.05212H47.9932V6.38619C47.9932 8.7371 47.8943 11.0756 47.8324 13.3771L47.6468 20.2442ZM47.6468 20.2442L47.4736 13.2533C47.4117 10.9395 47.3375 8.66286 47.3127 6.39856L47.6468 6.73264C42.1902 6.73264 36.7213 6.93061 31.2647 6.94299L14.8826 7.01722L15.5012 6.39856L15.4394 20.2442L14.8826 19.6874C17.5799 19.6874 20.2773 19.6874 22.987 19.7616L31.1286 19.8977L47.6468 20.2442Z" fill="#8BC7D7" fill-opacity="0.6"/>
	<path d="M211.94 157.402L195.706 157.748L187.465 157.884C184.706 157.946 181.947 157.884 179.175 157.958H178.631V157.402L178.557 143.556V142.937H179.175L195.557 143.024C201.026 143.024 206.483 143.16 211.94 143.222H212.286V143.556C212.286 145.907 212.175 148.245 212.125 150.559L211.94 157.402ZM211.94 157.402L211.766 150.411C211.766 148.109 211.63 145.82 211.605 143.556L211.94 143.902C206.483 143.964 201.026 144.088 195.557 144.1L179.175 144.175L179.794 143.556L179.732 157.402L179.175 156.857C181.885 156.857 184.57 156.857 187.28 156.857L195.421 156.993L211.94 157.402Z" fill="#8BC7D7" fill-opacity="0.6"/>
	<path d="M15.8845 342.573H176.055L181.215 240.94H10.7249L15.8845 342.573Z" fill="#8BC7D7" fill-opacity="0.6"/>
	<path d="M164.313 287.468H23.2461L21.3035 252.18H166.577L164.313 287.468ZM24.4958 286.231H163.15L165.253 253.442H22.6274L24.4958 286.231Z" fill="#8BC7D7" fill-opacity="0.6"/>
	<path d="M162.408 328.088H27.3047L25.7209 296.215H164.4L162.408 328.088ZM28.4925 326.851H161.232L163.063 297.502H27.0325L28.4925 326.851Z" fill="#8BC7D7" fill-opacity="0.6"/>
	<path d="M110.007 273.647H80.101L78.9998 265.147H111.17L110.007 273.647ZM81.2022 272.41H108.906L109.685 266.409H80.4227L81.2022 272.41Z" fill="#8BC7D7" fill-opacity="0.6"/>
	<path d="M110.007 316.383H80.101L78.9998 307.883H111.17L110.007 316.383ZM81.2022 315.146H108.906L109.685 309.145H80.4227L81.2022 315.146Z" fill="#8BC7D7" fill-opacity="0.6"/>
	<path d="M38.096 342.584L36.537 353.658L33.4065 375.905H27.2942V342.584H38.096Z" fill="#8BC7D7" fill-opacity="0.6"/>
	<path d="M38.096 342.584L36.537 353.658H27.2942V342.584H38.096Z" fill="#8BC7D7" fill-opacity="0.6"/>
	<path d="M153.848 342.584L155.407 353.658L158.525 375.905H164.649V342.584H153.848Z" fill="#8BC7D7" fill-opacity="0.6"/>
	<path d="M153.848 342.584L155.407 353.658H164.649V342.584H153.848Z" fill="#8BC7D7" fill-opacity="0.6"/>
	<path d="M518.439 6.39058H349.718V235.431H518.439V6.39058Z" fill="#8BC7D7" fill-opacity="0.6"/>
	<path d="M429.586 15.5585H360.259V117.439H429.586V15.5585Z" fill="white"/>
	<path d="M507.896 15.5585H438.569V117.439H507.896V15.5585Z" fill="white"/>
	<path d="M429.586 124.392H360.259V226.273H429.586V124.392Z" fill="white"/>
	<path d="M507.896 124.392H438.569V226.273H507.896V124.392Z" fill="white"/>
	<path d="M395.536 6.39058H349.718V334.071H395.536V6.39058Z" fill="#8BC7D7" fill-opacity="0.6"/>
	<path d="M386.85 21.9804L387.208 57.4049L387.332 92.8417L387.58 163.703L387.332 234.564L387.208 269.989L386.85 305.413L386.491 269.989L386.367 234.564L386.12 163.703L386.367 92.8417L386.503 57.4049L386.85 21.9804Z" fill="#8BC7D7" fill-opacity="0.6"/>
	<path d="M365.802 30.1913L366.161 61.8296L366.359 93.4679L366.532 156.732L366.371 220.009L366.161 251.647L365.802 283.273L365.456 251.647L365.245 220.009L365.084 156.732L365.245 93.4679L365.456 61.8296L365.802 30.1913Z" fill="#8BC7D7" fill-opacity="0.6"/>
	<path d="M376.332 37.6659L376.679 74.7113L376.815 111.744L377.05 185.835L376.815 259.926L376.691 296.959L376.332 334.004L375.973 296.959L375.85 259.926L375.602 185.835L375.85 111.744L375.973 74.7113L376.332 37.6659Z" fill="#8BC7D7" fill-opacity="0.6"/>
	<path d="M357.982 23.8437L358.341 62.609L358.465 101.387L358.712 178.93L358.465 256.461L358.341 295.238L357.982 334.004L357.624 295.238L357.5 256.461L357.252 178.93L357.5 101.387L357.636 62.609L357.982 23.8437Z" fill="#8BC7D7" fill-opacity="0.6"/>
	<path d="M472.621 334.082H518.439V6.40166H472.621L472.621 334.082Z" fill="#8BC7D7" fill-opacity="0.6"/>
	<path d="M481.306 21.9804L481.652 57.4049L481.789 92.8417L482.024 163.703L481.789 234.564L481.652 269.989L481.306 305.413L480.947 269.989L480.811 234.564L480.576 163.703L480.823 92.8417L480.947 57.4049L481.306 21.9804Z" fill="#8BC7D7" fill-opacity="0.6"/>
	<path d="M502.342 30.1913L502.7 61.8296L502.898 93.4679L503.072 156.732L502.898 220.009L502.7 251.647L502.342 283.273L501.983 251.647L501.785 220.009L501.612 156.732L501.785 93.4679L501.995 61.8296L502.342 30.1913Z" fill="#8BC7D7" fill-opacity="0.6"/>
	<path d="M491.824 37.6659L492.17 74.7113L492.306 111.744L492.554 185.835L492.306 259.926L492.182 296.959L491.824 334.004L491.465 296.959L491.341 259.926L491.094 185.835L491.341 111.744L491.465 74.7113L491.824 37.6659Z" fill="#8BC7D7" fill-opacity="0.6"/>
	<path d="M510.175 23.8437L510.521 62.6091L510.657 101.387L510.892 178.93L510.657 256.461L510.521 295.238L510.175 334.004L509.816 295.238L509.692 256.461L509.445 178.93L509.692 101.387L509.816 62.6091L510.175 23.8437Z" fill="#8BC7D7" fill-opacity="0.6"/>
	<path d="M210.196 23.248H135.338V114.055H210.196V23.248Z" fill="#8BC7D7" fill-opacity="0.6"/>
	<path d="M201.645 31.5507H143.887V105.778H201.645V31.5507Z" fill="white"/>
	<path d="M146.139 31.5507H143.887V105.778H146.139V31.5507Z" fill="#8BC7D7" fill-opacity="0.6"/>
	<path d="M212.448 23.248H210.196V114.055H212.448V23.248Z" fill="#8BC7D7" fill-opacity="0.6"/>
	<path d="M176.862 41.7812H163.239V82.3529H176.862V41.7812Z" fill="#8BC7D7" fill-opacity="0.6"/>
	<path d="M193.614 69.4042H157.299V89.2755H193.614V69.4042Z" stroke="#8BC7D7" stroke-opacity="0.6" stroke-miterlimit="10"/>
	<path d="M121.182 119.193H46.3245V210H121.182V119.193Z" fill="#8BC7D7" fill-opacity="0.6"/>
	<path d="M112.63 127.49H54.8723V201.717H112.63V127.49Z" fill="white"/>
	<path d="M57.1242 127.49H54.8723V201.717H57.1242V127.49Z" fill="#8BC7D7" fill-opacity="0.6"/>
	<path d="M123.433 119.193H121.181V210H123.433V119.193Z" fill="#8BC7D7" fill-opacity="0.6"/>
	<path d="M89.8264 146.67H78.1584V176.167H89.8264V146.67Z" fill="#8BC7D7" fill-opacity="0.6"/>
	<path d="M102.114 164.603H70.7727V184.933H102.114V164.603Z" stroke="#8BC7D7" stroke-opacity="0.6" stroke-miterlimit="10"/>
	<path d="M266.88 506.001C393.452 506.001 496.059 491.37 496.059 473.323C496.059 455.275 393.452 440.645 266.88 440.645C140.308 440.645 37.7017 455.275 37.7017 473.323C37.7017 491.37 140.308 506.001 266.88 506.001Z" fill="#EBEBEB"/>
	<path d="M0 375.908L66.717 375.611L133.446 375.5L266.88 375.289L400.314 375.5L467.031 375.599L533.76 375.908L467.031 376.205L400.314 376.316L266.88 376.527L133.446 376.316L66.717 376.205L0 375.908Z" fill="#263238"/>
	<path d="M466.585 191.988C466.585 191.988 492.408 188.375 486.382 157.207C486.369 157.194 457.528 163.678 466.585 191.988Z" fill="#A4D9B2"/>
	<path opacity="0.1" d="M466.585 191.988C466.585 191.988 492.408 188.375 486.382 157.207C486.369 157.194 457.528 163.678 466.585 191.988Z" fill="black"/>
	<path d="M467.896 185.455C468.403 183.884 468.997 182.337 469.653 180.815C469.653 180.617 469.653 180.419 469.715 180.221L469.826 178.984C469.9 178.06 469.962 177.132 470.012 176.2C470.123 174.332 470.247 172.488 470.272 170.607C470.278 170.591 470.289 170.578 470.303 170.568C470.318 170.558 470.335 170.553 470.352 170.553C470.369 170.553 470.386 170.558 470.4 170.568C470.415 170.578 470.426 170.591 470.432 170.607C470.432 172.476 470.432 174.319 470.432 176.212C470.432 177.145 470.383 178.073 470.284 178.996V179.615C471.724 176.509 473.456 173.547 475.456 170.768C476.347 169.531 477.275 168.294 478.277 167.192C479.279 166.091 480.393 164.891 481.432 163.728C481.447 163.713 481.467 163.705 481.488 163.705C481.509 163.705 481.529 163.713 481.543 163.728C481.558 163.743 481.567 163.763 481.567 163.784C481.567 163.804 481.558 163.824 481.543 163.839C479.703 165.893 478.047 168.103 476.594 170.447C475.802 171.684 475.072 172.859 474.367 174.097L474.602 173.998L475.518 173.626L477.634 172.835L481.779 171.288C481.865 171.288 481.927 171.399 481.779 171.436C480.405 171.981 479.044 172.562 477.695 173.144L475.691 174.01L474.689 174.418C474.468 174.528 474.236 174.611 473.996 174.666C473.476 175.594 472.957 176.534 472.486 177.487C471.293 179.899 470.24 182.378 469.331 184.911L469.146 185.443C469.823 185.046 470.53 184.703 471.261 184.416L473.934 183.179C475.74 182.35 477.547 181.508 479.279 180.518C479.366 180.518 479.44 180.617 479.353 180.654C477.584 181.632 475.839 182.659 474.07 183.624C473.179 184.107 472.288 184.577 471.373 185.022C470.606 185.476 469.77 185.802 468.898 185.987C468.038 188.351 467.469 190.811 467.203 193.312C466.918 196.839 466.955 200.39 466.869 203.916C466.869 203.916 466.782 203.916 466.77 203.916C466.522 200.711 466.374 197.482 466.362 194.265C466.401 191.265 466.918 188.291 467.896 185.455Z" fill="#263238"/>
	<path d="M471.869 167.142C472.122 168.962 472.209 170.8 472.129 172.636H472.054C471.943 170.817 471.931 168.998 471.72 167.179C471.708 167.08 471.856 167.043 471.869 167.142Z" fill="#263238"/>
	<path d="M479.255 168.699C480.407 168.259 481.516 167.717 482.571 167.078C482.658 167.016 482.732 167.152 482.645 167.214C481.613 167.911 480.483 168.449 479.292 168.81C479.23 168.835 479.193 168.736 479.255 168.699Z" fill="#263238"/>
	<path d="M465.768 241.472C465.768 238.626 465.842 235.768 465.879 232.909C465.879 223.444 466.003 213.966 466.176 204.451C466.316 196.928 466.49 189.409 466.696 181.895C466.7 181.874 466.709 181.854 466.722 181.837C466.735 181.82 466.751 181.806 466.77 181.796C466.77 179.742 466.77 177.688 466.77 175.609C466.77 175.609 466.832 175.535 466.894 175.535C466.956 175.535 467.018 175.535 467.018 175.621V181.808C467.036 181.817 467.052 181.831 467.062 181.849C467.073 181.866 467.079 181.886 467.079 181.907C467.463 195.282 467.797 208.67 467.884 222.058C467.884 224.78 467.884 227.502 467.884 230.224C467.974 238.96 468.007 247.691 467.983 256.418C467.983 257.804 467.983 259.202 467.983 260.588C467.983 268.569 467.908 276.562 467.896 284.543C467.896 284.976 467.426 285.186 466.919 285.211C466.411 285.236 465.681 285.001 465.681 284.506C465.681 275.708 465.619 266.899 465.619 258.089C465.743 252.607 465.718 247.002 465.768 241.472Z" fill="#263238"/>
	<path d="M476.546 232.817C476.546 232.817 488.919 223.611 500.748 229.823C512.577 236.034 514.346 260.038 514.346 260.038C514.346 260.038 497.023 262.513 486.147 252.131C475.68 242.084 476.546 232.817 476.546 232.817Z" fill="#A4D9B2"/>
	<path d="M473.169 233.361C475.449 232.449 477.921 232.126 480.358 232.42C480.861 232.334 481.37 232.284 481.88 232.272L483.625 232.136C484.862 232.037 486.099 231.975 487.25 231.876C489.725 231.703 492.199 231.542 494.6 231.307C494.686 231.307 494.711 231.443 494.6 231.455C492.125 231.764 489.762 232.111 487.337 232.358C486.099 232.482 484.862 232.606 483.625 232.705C483.34 232.705 483.031 232.705 482.721 232.791C483.093 232.863 483.46 232.954 483.823 233.064C485.775 233.626 487.662 234.393 489.452 235.353C490.43 235.526 491.395 235.798 492.36 236.021C493.894 236.38 495.429 236.776 496.95 237.184C499.97 237.976 502.951 238.854 505.946 239.733C506.045 239.733 505.946 239.906 505.946 239.881C502.964 239.151 499.957 238.471 496.95 237.765L492.595 236.714L491.444 236.454C494.785 238.516 497.769 241.107 500.279 244.125C502.696 247.097 504.752 250.345 506.404 253.801C506.404 253.888 506.329 253.974 506.28 253.888C504.233 250.333 501.738 247.057 498.856 244.138C498.856 244.311 498.967 244.472 499.017 244.645C499.24 245.375 499.475 246.105 499.71 246.835C500.168 248.295 500.625 249.755 501.071 251.227C501.071 251.326 500.947 251.351 500.91 251.227C500.39 249.805 499.895 248.382 499.388 246.959C499.153 246.253 498.905 245.561 498.658 244.855L498.287 243.766L498.163 243.432C496.778 242.099 495.307 240.859 493.758 239.72C491.712 238.214 489.499 236.947 487.163 235.947C487.163 236.157 487.25 236.367 487.299 236.578C487.411 237.147 487.547 237.704 487.658 238.273C487.906 239.51 488.128 240.636 488.363 241.811C488.834 244.212 489.118 246.649 489.601 249.05C489.601 249.069 489.593 249.088 489.579 249.102C489.565 249.116 489.546 249.124 489.527 249.124C489.507 249.124 489.488 249.116 489.474 249.102C489.46 249.088 489.452 249.069 489.452 249.05C488.896 246.575 488.215 244.261 487.633 241.836C487.374 240.599 487.101 239.362 486.842 238.199C486.73 237.629 486.619 237.06 486.495 236.491C486.433 236.182 486.359 235.86 486.322 235.538L485.654 235.266C482.401 233.87 478.831 233.379 475.322 233.843C473.689 234.157 472.158 234.868 470.864 235.912C469.569 236.956 468.551 238.302 467.898 239.832C467.787 240.104 467.354 239.943 467.416 239.659C467.823 238.236 468.554 236.926 469.553 235.834C470.551 234.741 471.789 233.894 473.169 233.361Z" fill="#263238"/>
	<path d="M504.188 247.584C505.759 248.388 507.293 249.291 508.951 249.947C509.05 249.947 508.951 250.145 508.889 250.096C507.267 249.355 505.685 248.529 504.15 247.621L504.188 247.584Z" fill="#263238"/>
	<path d="M473.762 215.888C473.762 215.888 488.932 216.853 496.034 206.843C503.136 196.833 501.503 182.555 501.503 182.555C501.503 182.555 485.566 184.485 479.231 191.674C472.896 198.863 473.762 215.888 473.762 215.888Z" fill="#A4D9B2"/>
	<path d="M466.634 230.86C467.154 229.239 467.81 227.643 468.428 226.047C469.047 224.451 469.665 222.991 470.309 221.493C471.668 218.433 473.188 215.447 474.862 212.548C475.926 210.704 477.077 208.922 478.265 207.153C478.265 206.881 478.339 206.621 478.376 206.349C478.45 205.878 478.512 205.408 478.587 204.938C478.735 203.973 478.908 203.02 479.069 202.055C479.416 199.964 479.849 197.885 480.183 195.782C480.183 195.683 480.356 195.683 480.344 195.782C480.034 197.861 479.824 199.939 479.539 201.969C479.391 202.983 479.267 203.998 479.106 205.012C479.106 205.384 478.995 205.755 478.933 206.126C481.255 202.74 483.763 199.485 486.444 196.376C486.802 195.968 487.186 195.559 487.545 195.139C487.545 195.027 487.644 194.916 487.693 194.792C487.743 194.668 487.916 194.211 488.015 193.926C488.25 193.32 488.46 192.689 488.683 192.12C489.104 190.882 489.487 189.731 489.809 188.507C489.809 188.408 489.982 188.507 489.958 188.507C489.648 189.744 489.326 190.981 488.968 192.218C488.794 192.812 488.596 193.456 488.386 193.988L488.275 194.285C490.217 192.169 492.234 190.127 494.288 188.098C494.362 188.024 494.461 188.098 494.387 188.21C490.471 192.321 486.877 196.726 483.635 201.387C484.004 201.269 484.38 201.174 484.761 201.102C485.998 200.88 487.112 200.706 488.287 200.558C490.762 200.249 493.236 199.939 495.711 199.543C495.81 199.543 495.86 199.68 495.711 199.692C493.36 200.162 491.034 200.694 488.695 201.226C487.594 201.486 486.493 201.696 485.379 201.919C484.476 202.107 483.587 202.359 482.719 202.674C482.472 203.02 482.212 203.367 481.977 203.726C480.863 205.346 479.787 207.004 478.747 208.675L480.294 208.378C481.47 208.155 482.645 207.932 483.82 207.747C486.134 207.363 488.448 206.955 490.737 206.435C490.836 206.435 490.873 206.571 490.737 206.596C488.423 207.141 486.122 207.833 483.82 208.39C482.707 208.687 481.581 208.959 480.467 209.207L478.772 209.566C478.549 209.625 478.322 209.662 478.092 209.677C475.873 213.282 473.811 216.961 471.905 220.714C471.08 222.364 470.255 224.013 469.43 225.663C468.614 227.383 467.921 229.14 467.178 230.897C467.067 231.392 466.51 231.244 466.634 230.86Z" fill="#263238"/>
	<path d="M482.175 195.97C482.472 194.523 482.769 193.087 483.09 191.64C483.09 191.541 483.263 191.64 483.251 191.64C482.954 193.063 482.682 194.485 482.422 195.908C482.213 197.341 481.928 198.762 481.568 200.165C481.674 198.754 481.877 197.353 482.175 195.97Z" fill="#263238"/>
	<path d="M491.022 195.551C491.727 195.204 492.469 194.92 493.199 194.635L494.35 194.19L494.944 193.955C495.165 193.886 495.377 193.79 495.575 193.67C495.699 193.584 495.761 193.782 495.649 193.806C495.425 193.867 495.209 193.954 495.006 194.066L494.424 194.326L493.323 194.821C492.593 195.143 491.838 195.464 491.084 195.712C491.063 195.717 491.041 195.715 491.022 195.705C491.002 195.696 490.988 195.679 490.98 195.659C490.972 195.639 490.972 195.617 490.98 195.597C490.988 195.577 491.002 195.561 491.022 195.551Z" fill="#263238"/>
	<path d="M458.221 203.962C458.221 203.962 449.04 186.8 435.058 184.165C421.077 181.529 412.539 195.894 412.539 195.894C412.539 195.894 422.735 208.899 435.553 211.175C448.372 213.452 458.221 203.962 458.221 203.962Z" fill="#A4D9B2"/>
	<path d="M425.705 191.822C429.342 191.331 433.031 191.373 436.656 191.946L436.037 191.612C434.998 191.092 433.971 190.56 432.931 190.015C430.791 188.902 428.625 187.714 426.373 186.811C426.365 186.807 426.357 186.801 426.35 186.794C426.343 186.787 426.338 186.778 426.334 186.769C426.331 186.76 426.329 186.75 426.33 186.74C426.33 186.73 426.332 186.721 426.336 186.712C426.34 186.703 426.346 186.695 426.353 186.688C426.361 186.681 426.369 186.676 426.378 186.673C426.387 186.669 426.397 186.668 426.407 186.668C426.417 186.668 426.426 186.671 426.435 186.675C428.625 187.689 430.89 188.543 433.08 189.545C434.181 190.053 435.257 190.585 436.322 191.141C437.014 191.513 437.782 191.859 438.45 192.292C441.521 192.91 444.505 193.903 447.334 195.249L445.589 193.344C444.29 191.921 443.003 190.424 441.58 189.125C441.565 189.11 441.557 189.09 441.557 189.069C441.557 189.048 441.565 189.028 441.58 189.013C441.595 188.998 441.615 188.99 441.636 188.99C441.657 188.99 441.677 188.998 441.692 189.013C443.152 190.337 444.698 191.574 446.109 192.948C446.802 193.616 447.457 194.309 448.101 195.027C448.423 195.385 448.744 195.757 449.041 196.128C453.843 198.695 458.014 202.297 461.254 206.672C464.493 211.048 466.72 216.089 467.774 221.431C467.774 221.451 467.766 221.47 467.752 221.483C467.739 221.497 467.72 221.505 467.7 221.505C467.68 221.505 467.661 221.497 467.647 221.483C467.634 221.47 467.626 221.451 467.626 221.431C465.65 214.913 462.126 208.97 457.356 204.108C452.216 198.865 445.743 195.122 438.635 193.282C434.423 192.185 430.062 191.768 425.718 192.045C425.699 192.033 425.684 192.017 425.672 191.998C425.661 191.98 425.655 191.958 425.654 191.936C425.652 191.915 425.656 191.893 425.665 191.873C425.674 191.853 425.688 191.835 425.705 191.822Z" fill="#263238"/>
	<path opacity="0.1" d="M412.539 195.871C412.539 195.871 422.734 208.887 435.553 211.152C445.34 212.884 453.383 207.786 456.649 205.274L457.355 204.111C457.355 204.111 450.735 198.543 438.226 195.326C425.716 192.109 412.539 195.871 412.539 195.871Z" fill="black"/>
	<path d="M433.809 185.696C434.873 186.352 435.924 186.933 436.914 187.75C437.889 188.489 438.792 189.318 439.612 190.225C439.686 190.311 439.612 190.41 439.488 190.336C438.56 189.532 437.632 188.728 436.667 187.96C435.731 187.199 434.752 186.492 433.734 185.845C433.648 185.783 433.722 185.647 433.809 185.696Z" fill="#263238"/>
	<path d="M426.15 188.607L427.709 189.226L429.268 189.87C429.289 189.88 429.305 189.898 429.314 189.92C429.323 189.942 429.324 189.966 429.317 189.989C429.309 190.011 429.294 190.03 429.274 190.042C429.253 190.055 429.229 190.059 429.206 190.055L427.647 189.424C427.127 189.214 426.62 188.966 426.1 188.756C426.091 188.753 426.082 188.748 426.074 188.741C426.066 188.734 426.06 188.726 426.055 188.717C426.051 188.708 426.048 188.698 426.047 188.687C426.046 188.677 426.048 188.667 426.051 188.657C426.054 188.647 426.059 188.638 426.066 188.63C426.073 188.623 426.081 188.616 426.09 188.612C426.099 188.607 426.109 188.604 426.12 188.604C426.13 188.603 426.14 188.604 426.15 188.607Z" fill="#263238"/>
	<path d="M460.053 225.558C460.053 225.558 457.579 242.571 444.809 248.522C432.04 254.474 416.351 248.522 416.351 248.522C416.351 248.522 422.538 211.7 460.053 225.558Z" fill="#A4D9B2"/>
	<path d="M425.259 237.456C426.435 237.32 427.61 237.11 428.786 236.899L430.505 236.578L431.396 236.392C431.743 236.07 432.077 235.749 432.436 235.439C434.861 233.303 437.484 231.401 440.268 229.76C441.784 228.868 443.35 228.062 444.957 227.347H444.71L440.503 227.533C437.694 227.669 434.886 227.731 432.077 227.904C431.978 227.904 431.978 227.756 432.077 227.756C434.898 227.558 437.694 227.248 440.515 227.013L444.611 226.642L446.714 226.456H447.259C447.989 226.184 448.719 225.924 449.461 225.689C452.95 224.494 456.702 224.288 460.3 225.095C463.517 225.924 466.734 228.028 467.576 231.418C467.576 231.542 467.415 231.616 467.365 231.505C466.128 228.671 463.022 227.236 460.176 226.654C458.268 226.279 456.309 226.238 454.386 226.531C454.248 227.408 454.024 228.27 453.718 229.104C453.371 230.342 453.012 231.505 452.653 232.705C451.936 235.093 451.132 237.456 450.426 239.857C450.426 239.876 450.418 239.895 450.405 239.909C450.391 239.923 450.372 239.931 450.352 239.931C450.332 239.931 450.313 239.923 450.3 239.909C450.286 239.895 450.278 239.876 450.278 239.857C450.872 237.469 451.367 235.056 451.948 232.668C452.22 231.492 452.517 230.317 452.814 229.141C452.977 228.304 453.192 227.477 453.458 226.667C452.338 226.862 451.231 227.122 450.142 227.446C448.165 228.034 446.227 228.745 444.339 229.574C444.153 230.812 443.881 231.987 443.596 233.187C443.25 234.685 442.854 236.169 442.359 237.642C442.359 237.741 442.198 237.642 442.211 237.642C442.237 237.548 442.258 237.453 442.272 237.357C442.557 235.959 442.866 234.573 443.163 233.187C443.398 232.061 443.621 230.935 443.856 229.822C442.272 230.527 440.713 231.319 439.191 232.185C439.191 232.532 439.08 232.878 439.031 233.2C438.944 233.781 438.833 234.363 438.721 234.944C438.486 236.256 438.226 237.568 437.905 238.867C437.328 241.385 436.592 243.865 435.702 246.291C435.71 246.296 435.716 246.304 435.72 246.312C435.725 246.321 435.727 246.33 435.727 246.34C435.727 246.35 435.725 246.359 435.72 246.368C435.716 246.376 435.71 246.384 435.702 246.39L435.628 246.476C435.628 246.538 435.492 246.476 435.504 246.39C436.098 243.915 436.742 241.366 437.323 238.842C437.608 237.605 437.88 236.367 438.14 235.043C438.263 234.412 438.375 233.806 438.499 233.138C438.499 232.965 438.56 232.767 438.585 232.569C436.876 233.587 435.224 234.698 433.636 235.897C430.877 237.964 428.324 240.292 426.014 242.851C425.927 242.962 425.742 242.851 425.828 242.702C426.806 241.465 427.771 240.228 428.872 238.99C429.516 238.31 430.184 237.642 430.864 236.986H430.654L428.847 237.258C427.672 237.419 426.484 237.53 425.296 237.666C425.16 237.617 425.123 237.469 425.259 237.456Z" fill="#263238"/>
	<path d="M434.218 243.217C434.23 243.067 434.255 242.918 434.292 242.772C434.292 242.586 434.416 242.413 434.44 242.215C434.7 241.077 434.923 239.926 435.121 238.775C435.121 238.756 435.129 238.737 435.143 238.723C435.156 238.709 435.175 238.701 435.195 238.701C435.215 238.701 435.234 238.709 435.247 238.723C435.261 238.737 435.269 238.756 435.269 238.775C435.187 240.299 434.857 241.8 434.292 243.217C434.292 243.217 434.193 243.217 434.205 243.217H434.218Z" fill="#263238"/>
	<path d="M444.934 242.955C444.934 242.935 444.942 242.916 444.955 242.902C444.969 242.888 444.988 242.88 445.008 242.88C445.367 241.371 445.713 239.861 446.023 238.352L446.505 235.951C446.579 235.518 446.666 235.098 446.74 234.714C446.775 234.331 446.867 233.956 447.012 233.601C447.02 233.588 447.031 233.577 447.044 233.57C447.057 233.562 447.072 233.559 447.087 233.559C447.102 233.559 447.116 233.562 447.129 233.57C447.142 233.577 447.153 233.588 447.161 233.601C447.171 234.376 447.062 235.147 446.839 235.89C446.678 236.719 446.518 237.548 446.332 238.364C445.961 240.035 445.54 241.717 445.095 243.314C445.095 243.337 445.085 243.359 445.069 243.375C445.053 243.391 445.031 243.4 445.008 243.4C444.985 243.4 444.963 243.391 444.947 243.375C444.93 243.359 444.921 243.337 444.921 243.314L444.934 242.955Z" fill="#263238"/>
	<path d="M426.384 232.544C428.723 232.235 431.061 231.888 433.4 231.604C433.499 231.604 433.536 231.74 433.4 231.764C431.074 232.098 428.723 232.395 426.384 232.705C426.322 232.717 426.285 232.569 426.384 232.544Z" fill="#263238"/>
	<path d="M466.611 185.634C466.611 185.634 474.443 151.274 437.534 137.379C437.534 137.366 427.301 182.59 466.611 185.634Z" fill="#A4D9B2"/>
	<path d="M458.668 166.151L458.272 165.904L456.193 164.766L451.912 162.378C449.103 160.794 446.319 159.161 443.486 157.614C443.387 157.614 443.486 157.428 443.56 157.478C446.406 159.024 449.301 160.472 452.16 161.982L456.391 164.221L458.111 165.137C456.874 162.798 455.636 160.509 454.127 158.307C452.197 155.362 450.081 152.553 447.878 149.819C447.855 149.794 447.843 149.761 447.844 149.728C447.846 149.694 447.86 149.662 447.885 149.639C447.909 149.616 447.942 149.604 447.976 149.605C448.009 149.606 448.041 149.621 448.064 149.646C451.299 152.794 454.163 156.302 456.602 160.101C456.595 159.985 456.595 159.87 456.602 159.754C456.602 158.888 456.54 158.035 456.527 157.181C456.527 155.51 456.527 153.828 456.527 152.157C456.527 152.046 456.676 152.058 456.688 152.157C456.75 153.803 456.948 155.449 457.047 157.107C457.047 157.923 457.134 158.752 457.158 159.581C457.158 160.027 457.158 160.534 457.158 161.029C457.913 162.266 458.643 163.504 459.336 164.741C460.568 166.981 461.671 169.291 462.64 171.657C462.64 170.804 462.726 169.95 462.776 169.096C462.887 167.215 463.11 165.384 463.196 163.466C463.203 163.45 463.214 163.437 463.228 163.427C463.243 163.417 463.26 163.412 463.277 163.412C463.294 163.412 463.311 163.417 463.325 163.427C463.34 163.437 463.351 163.45 463.357 163.466C463.357 165.347 463.357 167.178 463.357 169.109C463.357 170.049 463.357 170.989 463.234 171.93C463.234 172.276 463.234 172.623 463.172 172.981C464.347 176.05 465.278 179.207 465.956 182.422C466.592 185.852 467.05 189.313 467.329 192.791C466.939 189.66 466.285 186.569 465.374 183.548C464.916 181.927 464.434 180.306 463.914 178.71C462.38 177.98 460.907 177.077 459.423 176.236C457.938 175.394 456.329 174.553 454.795 173.761C451.714 172.078 448.608 170.358 445.453 168.812C445.367 168.812 445.453 168.638 445.54 168.676C448.757 170.136 451.999 171.521 455.166 173.105C456.738 173.897 458.284 174.751 459.819 175.58C461.056 176.31 462.417 177.027 463.642 177.856C463.283 176.792 462.912 175.728 462.504 174.677C461.369 171.772 460.089 168.927 458.668 166.151Z" fill="#263238"/>
	<path d="M461.758 158.297C461.758 158.198 461.918 158.198 461.906 158.297C461.782 160.264 461.708 162.219 461.498 164.174C461.498 164.197 461.489 164.219 461.472 164.235C461.456 164.251 461.434 164.261 461.411 164.261C461.388 164.261 461.366 164.251 461.35 164.235C461.334 164.219 461.324 164.197 461.324 164.174C461.399 162.207 461.609 160.252 461.758 158.297Z" fill="#263238"/>
	<path d="M444.055 164.845C446.369 165.785 448.695 166.664 450.997 167.629C451.059 167.629 450.997 167.752 450.997 167.728C448.658 166.862 446.357 165.909 444.043 165.006C443.919 164.968 443.969 164.758 444.055 164.845Z" fill="#263238"/>
	<path d="M440.551 149.007C442.807 150.043 444.997 151.216 447.109 152.52C447.132 152.534 447.149 152.555 447.156 152.581C447.163 152.606 447.159 152.634 447.146 152.657C447.133 152.68 447.111 152.696 447.086 152.703C447.06 152.71 447.033 152.707 447.01 152.694C444.869 151.456 442.692 150.219 440.465 149.143C440.378 149.093 440.452 148.957 440.551 149.007Z" fill="#263238"/>
	<path d="M441.098 316.047H494.339V259.934H441.098V316.047Z" fill="#455A64"/>
	<path d="M498.001 279.791H495.279V375.906H498.001V279.791Z" fill="#263238"/>
	<path d="M440.453 279.791H437.73V375.906H440.453V279.791Z" fill="#263238"/>
	<path d="M467.773 279.791H465.051V375.906H467.773V279.791Z" fill="#263238"/>
	<path d="M439.092 320.203H496.64V312.433H439.092V320.203Z" fill="#263238"/>
	<path d="M54.6031 477.926C50.6175 478.36 46.6103 478.566 42.6011 478.544C38.5919 478.566 34.5848 478.36 30.5991 477.926C34.5838 477.479 38.5917 477.273 42.6011 477.307C46.6106 477.272 50.6185 477.479 54.6031 477.926Z" fill="#8BC7D7" fill-opacity="0.6"/>
	<path d="M58.253 473.953C54.2674 474.387 50.2602 474.594 46.251 474.572C42.2418 474.594 38.2346 474.388 34.249 473.953C38.2336 473.506 42.2416 473.299 46.251 473.334C50.2605 473.3 54.2683 473.507 58.253 473.953Z" fill="#8BC7D7" fill-opacity="0.6"/>
	<path d="M62.0653 469.966C58.0848 470.412 54.0811 470.619 50.0757 470.584C46.0663 470.619 42.0583 470.413 38.0737 469.966C42.0591 469.529 46.0666 469.326 50.0757 469.359C54.0807 469.327 58.0841 469.529 62.0653 469.966Z" fill="#8BC7D7" fill-opacity="0.6"/>
	<path d="M65.7411 465.996C61.7606 466.442 57.7568 466.649 53.7515 466.614C49.742 466.649 45.7341 466.443 41.7495 465.996C45.7351 465.561 49.7423 465.355 53.7515 465.377C57.7566 465.355 61.7596 465.561 65.7411 465.996Z" fill="#8BC7D7" fill-opacity="0.6"/>
	<path d="M69.4532 462.029C65.4686 462.476 61.4607 462.682 57.4512 462.648C53.4418 462.682 49.4339 462.475 45.4492 462.029C49.4349 461.595 53.442 461.388 57.4512 461.41C61.4604 461.388 65.4676 461.595 69.4532 462.029Z" fill="#8BC7D7" fill-opacity="0.6"/>
	<path d="M73.1891 458.021C69.2034 458.455 65.1962 458.662 61.1871 458.64C57.1776 458.674 53.1697 458.468 49.1851 458.021C53.1707 457.587 57.1779 457.38 61.1871 457.402C65.1962 457.381 69.2034 457.587 73.1891 458.021Z" fill="#8BC7D7" fill-opacity="0.6"/>
	<path d="M76.8644 454.087C72.8787 454.521 68.8715 454.728 64.8624 454.706C60.8529 454.741 56.845 454.534 52.8604 454.087C56.845 453.641 60.8529 453.434 64.8624 453.469C68.8715 453.447 72.8787 453.653 76.8644 454.087Z" fill="#8BC7D7" fill-opacity="0.6"/>
	<path d="M80.6498 450.115C76.6642 450.549 72.657 450.756 68.6478 450.733C64.6428 450.756 60.6397 450.549 56.6582 450.115C60.6387 449.668 64.6425 449.462 68.6478 449.496C72.657 449.474 76.6642 449.68 80.6498 450.115Z" fill="#8BC7D7" fill-opacity="0.6"/>
	<path d="M84.2364 446.138C80.2508 446.573 76.2436 446.779 72.2344 446.757C68.2253 446.779 64.2181 446.572 60.2324 446.138C64.2171 445.692 68.225 445.485 72.2344 445.52C76.2439 445.485 80.2518 445.692 84.2364 446.138Z" fill="#8BC7D7" fill-opacity="0.6"/>
	<path d="M88.0605 442.166C80.0804 442.991 72.0366 442.991 64.0565 442.166C68.0412 441.719 72.0491 441.513 76.0585 441.547C80.068 441.512 84.0759 441.719 88.0605 442.166Z" fill="#8BC7D7" fill-opacity="0.6"/>
	<path d="M91.7609 438.218C83.785 439.043 75.7452 439.043 67.7693 438.218C71.7539 437.771 75.7618 437.565 79.7713 437.6C83.7766 437.565 87.7804 437.772 91.7609 438.218Z" fill="#8BC7D7" fill-opacity="0.6"/>
	<path d="M95.495 434.205C91.5104 434.652 87.5025 434.858 83.493 434.823C79.4877 434.858 75.4839 434.651 71.5034 434.205C79.4794 433.38 87.5191 433.38 95.495 434.205Z" fill="#8BC7D7" fill-opacity="0.6"/>
	<path d="M479.158 477.924C487.139 477.099 495.182 477.099 503.162 477.924C495.182 478.749 487.139 478.749 479.158 477.924Z" fill="#8BC7D7" fill-opacity="0.6"/>
	<path d="M475.508 473.953C483.488 473.128 491.532 473.128 499.512 473.953C491.532 474.778 483.488 474.778 475.508 473.953Z" fill="#8BC7D7" fill-opacity="0.6"/>
	<path d="M471.696 469.966C479.673 469.158 487.711 469.158 495.688 469.966C487.712 470.791 479.672 470.791 471.696 469.966Z" fill="#8BC7D7" fill-opacity="0.6"/>
	<path d="M468.022 465.994C475.998 465.169 484.038 465.169 492.014 465.994C484.038 466.819 475.998 466.819 468.022 465.994Z" fill="#8BC7D7" fill-opacity="0.6"/>
	<path d="M464.309 462.029C472.289 461.204 480.333 461.204 488.313 462.029C480.333 462.854 472.289 462.854 464.309 462.029Z" fill="#8BC7D7" fill-opacity="0.6"/>
	<path d="M460.572 458.019C468.552 457.194 476.596 457.194 484.576 458.019C480.591 458.466 476.583 458.673 472.574 458.638C468.565 458.66 464.558 458.453 460.572 458.019Z" fill="#8BC7D7" fill-opacity="0.6"/>
	<path d="M456.899 454.087C460.884 453.653 464.891 453.447 468.901 453.469C472.91 453.434 476.918 453.641 480.903 454.087C476.918 454.534 472.91 454.741 468.901 454.706C464.891 454.728 460.884 454.521 456.899 454.087Z" fill="#8BC7D7" fill-opacity="0.6"/>
	<path d="M453.112 450.115C457.097 449.68 461.104 449.474 465.114 449.496C469.119 449.462 473.123 449.668 477.103 450.115C469.127 450.94 461.088 450.94 453.112 450.115Z" fill="#8BC7D7" fill-opacity="0.6"/>
	<path d="M449.524 446.139C457.504 445.314 465.548 445.314 473.528 446.139C465.548 446.963 457.504 446.963 449.524 446.139Z" fill="#8BC7D7" fill-opacity="0.6"/>
	<path d="M445.7 442.168C453.681 441.343 461.724 441.343 469.704 442.168C461.724 442.993 453.681 442.993 445.7 442.168Z" fill="#8BC7D7" fill-opacity="0.6"/>
	<path d="M442.001 438.22C449.977 437.396 458.016 437.396 465.992 438.22C458.016 439.045 449.977 439.045 442.001 438.22Z" fill="#8BC7D7" fill-opacity="0.6"/>
	<path d="M438.264 434.205C446.24 433.38 454.28 433.38 462.256 434.205C454.28 435.03 446.24 435.03 438.264 434.205Z" fill="#8BC7D7" fill-opacity="0.6"/>
	<path d="M92.0339 433.682H442.793L484.033 478.461H49.7295L92.0339 433.682Z" fill="#8BC7D7" fill-opacity="0.6"/>
	<path opacity="0.1" d="M99.2956 433.682L57.301 478.448H52.958L95.2496 433.682H99.2956Z" fill="black"/>
	<path opacity="0.1" d="M108.873 433.682L69.1671 478.448H64.4653L105.087 433.682H108.873Z" fill="black"/>
	<path opacity="0.1" d="M125.588 433.682L89.8794 478.448H76.6772L114.923 433.682H125.588Z" fill="black"/>
	<path opacity="0.1" d="M135.153 433.682L101.733 478.448H97.0312L131.354 433.682H135.153Z" fill="black"/>
	<path opacity="0.1" d="M151.845 433.682L122.459 478.448H109.244L141.204 433.682H151.845Z" fill="black"/>
	<path opacity="0.1" d="M161.422 433.682L134.312 478.448H129.623L157.635 433.682H161.422Z" fill="black"/>
	<path opacity="0.1" d="M178.139 433.682L155.026 478.448H141.823L167.461 433.682H178.139Z" fill="black"/>
	<path opacity="0.1" d="M187.693 433.682L166.894 478.448H162.192L183.907 433.682H187.693Z" fill="black"/>
	<path opacity="0.1" d="M204.394 433.682L187.616 478.448H174.401L193.741 433.682H204.394Z" fill="black"/>
	<path opacity="0.1" d="M213.96 433.682L199.471 478.448H194.77L210.162 433.682H213.96Z" fill="black"/>
	<path opacity="0.1" d="M230.663 433.682L220.183 478.448H206.98L220.009 433.682H230.663Z" fill="black"/>
	<path opacity="0.1" d="M240.241 433.682L232.049 478.448H227.348L236.454 433.682H240.241Z" fill="black"/>
	<path opacity="0.1" d="M256.944 433.682L252.774 478.448H239.56L246.291 433.682H256.944Z" fill="black"/>
	<path opacity="0.1" d="M266.51 433.682L264.629 478.448H259.927L262.711 433.682H266.51Z" fill="black"/>
	<path opacity="0.1" d="M285.341 478.448H272.139L272.56 433.682H283.213L285.341 478.448Z" fill="black"/>
	<path opacity="0.1" d="M297.195 478.448H292.506L288.992 433.682H292.778L297.195 478.448Z" fill="black"/>
	<path opacity="0.1" d="M317.919 478.448H304.705L298.828 433.682H309.481L317.919 478.448Z" fill="black"/>
	<path opacity="0.1" d="M329.787 478.448H325.085L315.261 433.682H319.047L329.787 478.448Z" fill="black"/>
	<path opacity="0.1" d="M350.5 478.448H337.286L325.111 433.682H335.764L350.5 478.448Z" fill="black"/>
	<path opacity="0.1" d="M362.367 478.448H357.665L341.531 433.682H345.329L362.367 478.448Z" fill="black"/>
	<path opacity="0.1" d="M383.078 478.448H369.863L351.378 433.682H362.019L383.078 478.448Z" fill="black"/>
	<path opacity="0.1" d="M394.944 478.448H390.242L367.81 433.682H371.596L394.944 478.448Z" fill="black"/>
	<path opacity="0.1" d="M415.657 478.448H402.442L377.646 433.682H388.3L415.657 478.448Z" fill="black"/>
	<path opacity="0.1" d="M427.522 478.448H422.82L394.077 433.682H397.863L427.522 478.448Z" fill="black"/>
	<path opacity="0.1" d="M448.237 478.448H435.022L403.916 433.682H414.57L448.237 478.448Z" fill="black"/>
	<path opacity="0.1" d="M460.105 478.448H455.403L420.35 433.682H424.136L460.105 478.448Z" fill="black"/>
	<path opacity="0.1" d="M480.802 478.448H467.588L430.196 433.682H440.837L480.802 478.448Z" fill="black"/>
	<path d="M484.021 478.446H49.7295V481.836H484.021V478.446Z" fill="#8BC7D7" fill-opacity="0.6"/>
	<path opacity="0.2" d="M484.021 478.446H49.7295V481.836H484.021V478.446Z" fill="black"/>
	<path d="M247.083 338.106H320.332L332.779 352.347C357.86 351.197 386.727 350.763 413.626 356.579C462.958 367.269 480.726 432.389 419.318 457.569C369.293 478.084 177.471 437.264 177.471 437.264L220.777 366.675C220.777 366.675 272.955 364.683 335.353 365.376L247.652 374.285L247.083 338.106Z" fill="#B5A5E2"/>
	<path d="M195.92 435.034C196.91 432.993 208.417 415.485 210.978 411.463C216.158 403.347 221.165 395.118 225.999 386.779C228.746 382.04 231.517 377.313 234.091 372.463C234.103 372.453 234.112 372.44 234.118 372.426C234.124 372.411 234.126 372.396 234.125 372.38C234.123 372.365 234.119 372.35 234.11 372.337C234.102 372.323 234.091 372.312 234.078 372.304C234.065 372.296 234.05 372.291 234.034 372.29C234.019 372.288 234.003 372.291 233.989 372.297C233.974 372.302 233.962 372.312 233.951 372.323C233.941 372.335 233.934 372.349 233.93 372.364C228.486 380.419 223.314 388.684 218.031 396.851C212.747 405.017 196.353 432.424 195.412 434.774C195.227 435.269 195.685 435.517 195.92 435.034Z" fill="#263238"/>
	<path d="M410.408 365.205C404.221 364.76 398.035 364.612 391.848 364.352L384.239 364.067C388.271 363.396 392.335 362.93 396.414 362.669C396.466 362.657 396.512 362.628 396.545 362.586C396.578 362.545 396.596 362.493 396.596 362.44C396.596 362.387 396.578 362.336 396.545 362.294C396.512 362.252 396.466 362.223 396.414 362.211C391.483 362.283 386.573 362.872 381.764 363.968C378.906 363.869 376.06 363.795 373.202 363.721C360.829 363.411 348.456 363.387 336.082 363.448C311.435 363.585 286.788 364.08 262.165 364.772C255.211 364.958 248.257 365.168 241.316 365.441C234.375 365.713 227.384 366.01 220.48 366.789C220.465 366.784 220.449 366.782 220.433 366.784C220.417 366.786 220.402 366.792 220.389 366.801C220.376 366.81 220.365 366.822 220.357 366.836C220.35 366.85 220.346 366.866 220.346 366.882C220.346 366.898 220.35 366.914 220.357 366.928C220.365 366.942 220.376 366.954 220.389 366.963C220.402 366.972 220.417 366.978 220.433 366.98C220.449 366.982 220.465 366.98 220.48 366.975C226.666 367.321 232.853 367.21 239.039 367.198C245.226 367.185 251.413 367 257.599 366.851C269.972 366.579 282.346 366.327 294.719 366.096C319.354 365.688 343.989 365.577 368.636 365.601C375.578 365.601 382.531 365.601 389.473 365.601C396.414 365.601 403.368 365.837 410.309 365.799C410.779 365.837 410.755 365.205 410.408 365.205Z" fill="#263238"/>
	<path d="M465.581 368.497C464.343 367.977 340.017 362.211 340.017 362.211C335.848 364.352 334.115 378.767 334.115 378.767C334.598 380.957 291.725 390.323 291.725 390.323L341.218 445.384L410.087 404.8C410.087 404.8 458.515 386.401 460.371 385.126C465.16 381.724 469.602 370.155 465.581 368.497Z" fill="#FAD6D1"/>
	<path d="M248.318 376.233V379.375L84.2119 373.597C119.5 372.409 192.02 374.327 248.318 376.233Z" fill="#37474F"/>
	<path d="M92.6646 373.61L107.228 373.115L109.591 374.241L92.6646 373.61Z" fill="#37474F"/>
	<path d="M365.53 448.03C365.53 448.03 160.209 475.585 96.215 453.239C45.2251 435.422 49.036 382.477 84.1759 362.036C84.7698 361.69 85.4132 361.343 85.9947 361.022C86.5763 360.7 87.096 360.44 87.6528 360.168L87.9992 359.995L89.3231 359.376C89.5953 359.24 89.8799 359.116 90.1645 359.005L91.5874 358.398L91.9463 358.262C92.5402 358.015 93.1836 357.792 93.7651 357.569L93.9507 357.508C94.5199 357.297 95.1014 357.099 95.683 356.926C95.9923 356.815 96.3016 356.716 96.6233 356.629C96.945 356.542 97.5389 356.344 98.0091 356.221C98.7268 356.01 99.4568 355.825 100.187 355.652C142.998 345.357 197.465 353.288 197.465 353.288L214.787 338.094H248.319V376.241C192.058 374.335 119.538 372.417 84.213 373.605L248.319 379.383V376.241C291.402 377.676 324.946 379.111 324.946 379.111L365.53 448.03Z" fill="#B5A5E2"/>
	<path d="M224.426 375.463C177.024 373.99 123.992 372.778 92.0324 373.384C91.6489 371.021 92.0324 369.091 93.4553 368.497C94.6927 367.965 219.006 362.211 219.006 362.211C221.926 363.696 223.646 371.083 224.426 375.463Z" fill="#37474F"/>
	<path d="M336.059 363.479H338.645C338.153 364.174 337.738 364.921 337.408 365.706C323.22 365.772 309.032 365.916 294.844 366.139C282.471 366.345 270.097 366.597 257.724 366.894C251.538 367.042 245.351 367.24 239.164 367.24C232.978 367.24 226.791 367.364 220.605 367.017C220.59 367.023 220.574 367.025 220.558 367.023C220.542 367.021 220.527 367.015 220.514 367.006C220.501 366.997 220.49 366.985 220.482 366.971C220.475 366.956 220.471 366.941 220.471 366.925C220.471 366.909 220.475 366.893 220.482 366.879C220.49 366.865 220.501 366.853 220.514 366.843C220.527 366.834 220.542 366.828 220.558 366.826C220.574 366.824 220.59 366.826 220.605 366.832C227.509 366.052 234.5 365.743 241.441 365.483C248.382 365.223 255.336 365.001 262.29 364.815C286.764 364.11 311.424 363.615 336.059 363.479Z" fill="#263238"/>
	<path d="M410.671 365.567C397.592 364.936 384.044 364.33 372.314 363.736H373.155C376.013 363.798 378.859 363.884 381.717 363.983C386.497 362.885 391.377 362.287 396.281 362.201C396.332 362.213 396.378 362.243 396.411 362.284C396.444 362.326 396.462 362.377 396.462 362.43C396.462 362.483 396.444 362.535 396.411 362.576C396.378 362.618 396.332 362.647 396.281 362.659C392.201 362.92 388.138 363.387 384.105 364.057L391.715 364.342C397.902 364.602 404.088 364.75 410.275 365.196C410.327 365.185 410.38 365.188 410.431 365.202C410.482 365.217 410.529 365.243 410.568 365.28C410.607 365.316 410.636 365.361 410.654 365.411C410.672 365.461 410.678 365.514 410.671 365.567Z" fill="#263238"/>
	<path d="M224.426 375.463C177.024 373.99 123.992 372.778 92.0324 373.384C91.6489 371.021 92.0324 369.091 93.4553 368.497C94.6927 367.965 219.006 362.211 219.006 362.211C221.926 363.696 223.646 371.083 224.426 375.463Z" fill="#FAD6D1"/>
	<path d="M326.654 381.295C326.208 380.192 325.67 379.128 325.045 378.115C287.022 375.913 258.762 375.158 226.468 374.292C194.174 373.426 161.892 372.881 129.598 372.77C111.892 372.77 93.9388 372.708 76.4926 376.074C76.2575 376.074 76.3194 376.507 76.5545 376.482C92.4207 374.876 108.374 374.301 124.315 374.762C140.4 375.022 156.399 375.232 172.434 375.529C204.605 376.123 236.73 376.948 268.809 378.004C286.849 378.635 306.721 379.08 324.761 379.724C325.124 380.503 325.577 381.238 326.109 381.914C326.617 382.112 326.889 381.802 326.654 381.295Z" fill="#263238"/>
	<path d="M367.018 448.395C365.582 446.143 364.159 443.883 362.749 441.614C361.43 439.358 359.962 437.192 358.356 435.131C358.01 434.71 357.49 435.279 357.676 435.687C358.84 438.038 360.154 440.311 361.611 442.493C362.848 444.386 363.986 446.279 365.162 448.184C360.509 448.716 355.845 449.187 351.18 449.694L336.27 451.352C326.223 452.441 316.151 453.381 306.092 454.408C300.388 454.977 294.672 455.435 288.992 456.165C288.965 456.174 288.94 456.191 288.923 456.214C288.906 456.238 288.897 456.266 288.897 456.295C288.897 456.324 288.906 456.352 288.923 456.376C288.94 456.399 288.965 456.416 288.992 456.425C294.09 456.425 299.188 456.177 304.273 455.918C309.359 455.658 314.258 455.324 319.232 454.928C329.304 454.136 339.376 453.183 349.398 451.933C355.078 451.216 360.732 450.35 366.399 449.521C366.529 449.518 366.656 449.481 366.767 449.413C366.879 449.346 366.97 449.25 367.033 449.136C367.095 449.022 367.127 448.893 367.124 448.763C367.122 448.633 367.085 448.506 367.018 448.395Z" fill="#263238"/>
	<path d="M342.642 445.361C341.243 443.592 330.491 425.564 327.992 421.543C322.943 413.343 317.714 405.255 312.302 397.279C309.234 392.738 306.19 388.185 302.948 383.755C302.932 383.741 302.913 383.733 302.892 383.731C302.871 383.729 302.849 383.734 302.832 383.745C302.814 383.756 302.8 383.773 302.792 383.792C302.784 383.812 302.782 383.834 302.787 383.854C307.737 392.268 312.847 400.521 317.907 408.835C322.968 417.15 340.464 443.889 342.196 445.708C342.555 446.091 342.988 445.782 342.642 445.361Z" fill="#263238"/>
	<path d="M268.29 138.172C265.951 138.023 256.226 135.004 247.899 142.787C240.017 150.211 232.903 175.724 230.502 181.144C228.102 186.563 220.492 186.006 217.498 192.279C214.937 197.662 218.661 200.508 218.302 204.739C218.018 208.031 213.873 212.237 215.902 217.558C217.758 222.396 222.633 222.359 225.207 224.252C227.78 226.145 228.325 233.049 233.237 235.808C238.149 238.568 243.704 234.658 246.476 235.214C249.248 235.771 250.955 244.94 260.186 245.905C269.416 246.87 273.499 239.718 277.508 238.865C281.517 238.011 290.487 242.453 295.672 238.58C300.856 234.707 302.762 228.533 305.236 226.64C307.711 224.747 311.596 225.823 315.011 220.948C318.426 216.073 314.108 211.743 314.281 206.979C314.405 203.663 317.82 201.25 316.756 195.942C315.259 188.642 306.696 188.518 304.853 180.983C303.405 175.056 302.749 150.384 289.522 141.834C280.317 135.895 268.29 138.172 268.29 138.172Z" fill="#263238"/>
	<path d="M230.998 179.817C230.223 180.908 229.195 181.795 228.003 182.403L224.551 184.407C222.237 185.585 220.12 187.117 218.278 188.948C217.427 189.832 216.793 190.9 216.423 192.07C216.054 193.24 215.961 194.479 216.15 195.691C216.397 196.921 216.84 198.103 217.461 199.193C218.179 200.402 218.713 201.712 219.045 203.078C219.128 204.568 218.715 206.043 217.87 207.273C217.214 208.51 216.521 209.574 215.939 210.725C215.288 211.786 214.855 212.965 214.663 214.195C214.472 215.425 214.527 216.681 214.826 217.889C215.158 219.061 215.872 220.089 216.855 220.809C217.91 221.514 219.09 222.01 220.332 222.269C221.569 222.603 222.906 222.813 224.205 223.073C225.545 223.225 226.808 223.777 227.83 224.657C226.734 223.903 225.447 223.474 224.118 223.42C222.807 223.271 221.483 223.185 220.146 222.95C218.78 222.737 217.468 222.257 216.286 221.539C215.069 220.749 214.154 219.572 213.687 218.198C212.623 215.464 213.477 212.432 214.677 210.057C215.271 208.819 215.915 207.681 216.57 206.543C217.237 205.573 217.571 204.414 217.523 203.239C217.14 201.024 215.148 198.723 214.764 195.815C214.557 194.399 214.694 192.953 215.164 191.601C215.633 190.248 216.421 189.028 217.461 188.045C219.47 186.225 221.76 184.742 224.242 183.652L227.83 181.957C229.027 181.479 230.108 180.749 230.998 179.817Z" fill="#263238"/>
	<path d="M300.176 157.654C301.908 162.109 302.65 166.86 303.764 171.438C304.346 173.727 304.84 176.029 305.583 178.243C305.919 179.32 306.371 180.357 306.932 181.337C307.039 181.57 307.19 181.78 307.377 181.955C307.53 182.16 307.714 182.339 307.921 182.487C308.354 182.834 308.837 183.168 309.32 183.49C311.34 184.778 313.289 186.174 315.16 187.672C317.143 189.218 318.593 191.347 319.305 193.759C319.632 195 319.632 196.305 319.305 197.546C318.952 198.735 318.373 199.844 317.597 200.812C316.004 202.56 314.835 204.651 314.182 206.924C314.343 204.45 315.729 202.359 316.979 200.404C317.631 199.472 318.106 198.428 318.377 197.323C318.575 196.241 318.499 195.126 318.154 194.081C317.386 191.957 316.025 190.097 314.232 188.723C312.368 187.295 310.431 185.965 308.429 184.739C307.934 184.393 307.439 184.034 306.956 183.638C306.427 183.212 305.985 182.687 305.657 182.091C305.064 181.002 304.587 179.853 304.234 178.664C303.541 176.37 302.992 174.035 302.589 171.673L301.425 164.645C301.14 162.293 300.723 159.959 300.176 157.654Z" fill="#263238"/>
	<path d="M307.711 225.399C306.625 226.685 305.812 228.18 305.323 229.791C304.668 231.362 304.012 232.934 303.269 234.481C302.541 236.062 301.65 237.563 300.609 238.96C299.542 240.441 298.133 241.642 296.501 242.461C292.938 243.897 289.213 242.944 286.058 241.731C284.462 241.113 282.915 240.42 281.332 239.838C279.798 239.151 278.122 238.842 276.444 238.935C278.136 238.552 279.898 238.62 281.554 239.133C283.225 239.578 284.821 240.16 286.442 240.63C289.597 241.583 293.037 242.288 295.895 241.075C297.307 240.369 298.535 239.344 299.483 238.081C300.511 236.775 301.434 235.389 302.242 233.936C303.096 232.488 303.863 230.979 304.655 229.469C305.076 228.727 305.509 227.985 305.967 227.267C306.372 226.5 306.974 225.855 307.711 225.399Z" fill="#263238"/>
	<path d="M260.938 230.168C260.938 247.046 230.377 322.027 214.836 335.093C209.515 339.56 166.494 350.275 142.366 350.622C132.294 350.77 123.113 303.195 137.998 299.607C150.161 296.674 189.966 289.708 191.277 288.471C200.495 279.538 215.665 251.624 239.743 225.454C253.564 210.384 260.951 217.164 260.938 230.168Z" fill="#FAD6D1"/>
	<path d="M152.736 349.447C135.958 355.201 115.407 356.352 108.403 354.149C101.4 351.947 80.6255 334.105 76.765 329.118C72.9046 324.132 76.9135 299.521 78.0023 293.991C78.8932 289.561 83.3723 286.381 87.5916 294.671C93.0234 305.287 90.0662 317.017 92.3676 319.578C94.669 322.14 106.906 324.528 110.63 321.001C112.821 318.935 113.575 312.105 109.876 308.121C106.176 304.137 99.9771 304.298 93.7905 300.412C87.6039 296.527 84.9313 286.901 87.307 285.49C89.6826 284.08 91.9222 286.802 102.229 288.707C108.861 289.945 118.822 287.47 130.799 291.269C136.825 293.186 148.121 299.262 148.121 299.262L152.736 349.447Z" fill="#FAD6D1"/>
	<path d="M118.401 342.942C109.876 344.501 92.0833 344.748 80.7123 339.23C73.0533 335.382 54.444 321.276 57.7724 315.721C62.5485 307.777 87.9878 323.33 91.4894 324.246C102.254 327.067 116.124 322.514 116.124 322.514L118.401 342.942Z" fill="#FAD6D1"/>
	<path d="M103.677 324.983C101.175 325.437 98.6325 325.619 96.092 325.527C94.8021 325.467 93.5193 325.301 92.2563 325.032C90.9825 324.739 89.7395 324.325 88.5444 323.795C86.2182 322.756 83.9663 321.605 81.7515 320.417C79.5367 319.229 77.359 317.943 75.1318 316.705C77.5274 317.519 79.8775 318.461 82.1722 319.526L89.0269 322.632C90.1387 323.146 91.294 323.56 92.4791 323.869C93.6696 324.18 94.8813 324.403 96.1044 324.538C98.6038 324.81 101.14 324.896 103.677 324.983Z" fill="#263238"/>
	<path d="M120.305 344.498C112.299 347.406 95.1377 350.548 83.1852 346.972C75.1426 344.584 54.8505 333.981 57.2014 328.066C60.5298 319.615 87.6642 330.541 91.203 330.813C102.079 331.791 114.712 325.121 114.712 325.121L120.305 344.498Z" fill="#FAD6D1"/>
	<path d="M103.714 329.204C100.327 330.714 96.6802 331.554 92.9741 331.679C92.0274 331.627 91.0894 331.469 90.1778 331.208L87.5299 330.528L82.2465 329.13C78.7243 328.206 75.2062 327.253 71.6922 326.271C69.9598 325.745 68.195 325.331 66.4089 325.034C64.6215 324.739 62.7905 324.849 61.0513 325.356C62.7575 324.636 64.6125 324.339 66.4583 324.49C68.2928 324.644 70.1128 324.937 71.9026 325.368C75.4784 326.123 79.0171 327.001 82.5435 327.917C84.3129 328.363 86.0822 328.82 87.8392 329.303L90.4747 330.008C91.3068 330.277 92.1655 330.456 93.036 330.54C94.82 330.623 96.6077 330.515 98.3688 330.219C100.151 329.971 101.945 329.625 103.714 329.204Z" fill="#263238"/>
	<path d="M126.317 354.829C114.501 355.818 96.6218 355.262 91.3632 354.012C86.1046 352.762 67.0499 345.413 65.7507 339.412C64.105 331.876 79.8437 335.613 86.4263 336.999C93.2439 338.434 102.054 335.242 102.054 335.242L126.317 354.829Z" fill="#FAD6D1"/>
	<path d="M65.6265 338.407C65.6304 337.644 65.8262 336.895 66.1956 336.229C66.6113 335.565 67.2263 335.05 67.9526 334.756C69.4167 334.284 70.9629 334.119 72.4936 334.274C75.5163 334.432 78.5166 334.883 81.4518 335.623C84.2968 336.442 87.2293 336.92 90.1873 337.045C93.1439 336.916 96.0641 336.341 98.8485 335.338C101.67 334.422 104.429 333.235 107.2 332.084C109.972 330.857 112.835 329.848 115.763 329.065C118.724 328.381 121.756 328.057 124.795 328.1C127.81 328.08 130.817 328.416 133.753 329.102C130.793 328.618 127.791 328.448 124.795 328.595C121.817 328.681 118.859 329.121 115.985 329.906C110.306 331.638 104.998 334.534 99.2444 336.513C96.3362 337.507 93.2961 338.062 90.2244 338.159C87.177 338.015 84.1633 337.457 81.2662 336.501C78.3886 335.687 75.4447 335.128 72.4688 334.831C71.009 334.62 69.5213 334.717 68.1011 335.115C67.405 335.329 66.7972 335.764 66.3689 336.353C65.9562 336.966 65.7012 337.671 65.6265 338.407Z" fill="#263238"/>
	<path d="M260.952 230.164C260.952 247.053 230.378 322.022 214.838 335.089C213.377 336.326 209.096 338.009 203.157 339.827L255.459 217.246C259.084 218.644 260.952 223.618 260.952 230.164Z" fill="#263238"/>
	<path d="M244.819 288.011L216.683 249.864C216.683 249.864 231.926 231.552 241.788 222.643C254.842 210.815 264.22 212.745 261.733 234.237C260.063 248.54 244.819 288.011 244.819 288.011Z" fill="#A4D9B2"/>
	<path opacity="0.1" d="M260.991 238.574C260.496 240.888 259.827 243.523 259.048 246.332L257.811 245.998C255.005 245.227 252.256 244.264 249.582 243.115C249.298 243.016 249.1 242.966 248.914 242.917L248.32 242.768C247.915 242.651 247.501 242.565 247.083 242.509C246.254 242.36 245.462 242.212 244.608 242.026C241.354 241.222 237.494 241.618 233.844 241.816C230.661 242.194 227.434 241.869 224.391 240.863C226.618 238.388 229.142 235.505 231.716 232.721L236.343 232.833C238.818 232.833 241.416 232.994 244.015 233.253C246.761 233.531 249.458 234.176 252.032 235.171C254.99 236.409 257.947 237.621 260.991 238.574ZM255.435 258.198C254.618 260.672 253.777 263.147 252.96 265.622C251.958 265.387 250.956 265.189 249.941 265.015C248.395 264.768 246.848 264.595 245.314 264.446C243.779 264.298 242.183 264.199 240.785 264.211C237.859 264.278 234.951 264.693 232.124 265.449L228.795 266.265L224.539 260.487C224.935 260.351 225.343 260.239 225.776 260.128C229.637 259.028 233.553 258.128 237.506 257.431C238.583 257.319 239.659 257.171 240.773 257.158C241.305 257.158 241.923 257.158 242.394 257.158H243.817C245.722 257.158 247.64 257.27 249.582 257.431C251.545 257.587 253.498 257.843 255.435 258.198ZM246.638 218.727C250.35 219.754 253.901 221.041 257.464 222.328C258.896 222.847 260.364 223.26 261.857 223.565C260.545 214.248 254.655 213.246 246.638 218.727ZM239.548 279.245H238.31L244.769 287.993C244.918 287.609 246.155 284.404 247.9 279.653C245.128 279.393 242.332 279.269 239.548 279.245Z" fill="black"/>
	<path d="M245.585 281.479C241.873 275.638 238.087 269.873 234.041 264.267C232.024 261.459 223.363 250.657 221.309 247.947C221.198 247.799 220.987 247.947 221.086 248.145C223.289 251.783 231.393 262.807 233.46 265.591C237.518 271.172 241.49 275.997 245.4 281.677C245.461 281.813 245.684 281.627 245.585 281.479Z" fill="#263238"/>
	<path d="M261.733 234.196C260.063 248.549 244.832 288.032 244.832 288.032L220.469 254.995L256.252 215.5C260.83 216.354 263.169 222.256 261.733 234.196Z" fill="#263238"/>
	<path d="M272.819 230.168C272.819 247.046 303.381 322.027 318.921 335.093C324.242 339.56 367.263 350.275 391.391 350.622C401.463 350.77 410.644 303.195 395.759 299.607C383.596 296.674 343.791 289.708 342.48 288.471C333.262 279.538 318.092 251.624 294.014 225.454C280.193 210.384 272.806 217.164 272.819 230.168Z" fill="#FAD6D1"/>
	<path d="M381.024 349.447C397.802 355.201 418.354 356.352 425.357 354.149C432.36 351.947 453.135 334.105 456.995 329.118C460.855 324.132 456.847 299.521 455.758 293.991C454.867 289.561 450.388 286.381 446.169 294.671C440.737 305.287 443.694 317.017 441.392 319.578C439.091 322.14 426.854 324.528 423.13 321.001C420.94 318.935 420.185 312.105 423.884 308.121C427.584 304.137 433.783 304.298 439.97 300.412C446.156 296.527 448.829 286.901 446.453 285.49C444.077 284.08 441.838 286.802 431.531 288.707C424.899 289.945 414.939 287.47 402.961 291.269C396.936 293.186 385.639 299.262 385.639 299.262L381.024 349.447Z" fill="#FAD6D1"/>
	<path d="M415.359 342.935C423.884 344.494 441.677 344.742 453.048 339.223C460.732 335.45 479.341 321.344 475.988 315.801C471.212 307.857 445.772 323.41 442.271 324.326C431.506 327.147 417.636 322.594 417.636 322.594L415.359 342.935Z" fill="#FAD6D1"/>
	<path d="M430.084 324.983C432.559 324.896 435.133 324.81 437.595 324.538C438.818 324.403 440.03 324.18 441.22 323.869C442.405 323.56 443.56 323.146 444.672 322.632L451.527 319.526C453.822 318.461 456.172 317.519 458.567 316.705C456.34 317.943 454.175 319.18 451.948 320.417C449.721 321.655 447.481 322.756 445.155 323.795C443.98 324.321 442.757 324.735 441.505 325.032C440.242 325.301 438.959 325.467 437.669 325.527C435.129 325.619 432.586 325.437 430.084 324.983Z" fill="#263238"/>
	<path d="M413.456 344.498C421.462 347.406 438.623 350.548 450.576 346.972C458.618 344.584 478.91 333.981 476.56 328.066C473.231 319.615 446.097 330.541 442.558 330.813C431.682 331.791 419.049 325.121 419.049 325.121L413.456 344.498Z" fill="#FAD6D1"/>
	<path d="M430.048 329.203C431.817 329.623 433.611 329.97 435.393 330.242C437.154 330.539 438.942 330.647 440.726 330.564C441.596 330.479 442.455 330.301 443.287 330.032L445.922 329.326C447.679 328.844 449.449 328.386 451.218 327.941C454.745 327.025 458.283 326.146 461.859 325.392C463.649 324.961 465.469 324.667 467.303 324.513C469.149 324.362 471.004 324.659 472.71 325.379C470.971 324.872 469.14 324.762 467.353 325.058C465.567 325.355 463.802 325.768 462.069 326.295C458.555 327.276 455.037 328.229 451.515 329.153L446.294 330.564L443.646 331.244C442.734 331.505 441.796 331.663 440.849 331.714C437.12 331.586 433.451 330.733 430.048 329.203Z" fill="#263238"/>
	<path d="M407.442 354.829C419.259 355.818 437.138 355.262 442.396 354.012C447.655 352.762 466.71 345.413 468.009 339.412C469.655 331.876 453.916 335.613 447.333 336.999C440.516 338.434 431.706 335.242 431.706 335.242L407.442 354.829Z" fill="#FAD6D1"/>
	<path d="M468.132 338.404C468.069 337.662 467.822 336.948 467.414 336.325C466.986 335.736 466.378 335.302 465.682 335.088C464.262 334.69 462.774 334.593 461.314 334.803C458.339 335.1 455.395 335.659 452.517 336.474C449.62 337.43 446.606 337.988 443.559 338.132C440.487 338.034 437.447 337.48 434.539 336.486C428.785 334.506 423.477 331.611 417.798 329.879C414.924 329.094 411.966 328.653 408.988 328.567C405.993 328.42 402.99 328.59 400.03 329.075C402.966 328.389 405.973 328.052 408.988 328.072C412.027 328.029 415.06 328.353 418.021 329.037C420.949 329.821 423.811 330.83 426.583 332.057C429.355 333.207 432.114 334.395 434.935 335.311C437.719 336.313 440.639 336.889 443.596 337.018C446.554 336.892 449.486 336.415 452.332 335.595C455.259 334.866 458.251 334.423 461.265 334.271C462.8 334.137 464.346 334.322 465.806 334.816C466.532 335.109 467.147 335.624 467.563 336.288C467.923 336.936 468.118 337.663 468.132 338.404Z" fill="#263238"/>
	<path d="M272.806 230.164C272.806 247.053 303.38 322.022 318.921 335.089C320.381 336.326 324.662 338.009 330.601 339.827L278.3 217.246C274.675 218.644 272.806 223.618 272.806 230.164Z" fill="#263238"/>
	<path d="M288.942 288.011L317.078 249.864C317.078 249.864 301.834 231.552 291.973 222.643C278.919 210.815 269.54 212.745 272.027 234.237C273.698 248.54 288.942 288.011 288.942 288.011Z" fill="#A4D9B2"/>
	<path opacity="0.1" d="M306.586 237.765H306.388C306.209 237.804 306.026 237.825 305.843 237.827H305.744C305.551 237.845 305.356 237.845 305.163 237.827C305.526 237.731 305.904 237.706 306.276 237.752H306.388H306.524L306.45 237.666L306.338 237.554H304.396L303.789 237.641C303.084 237.79 302.366 237.913 301.933 237.48H301.401L301.5 237.567L301.302 237.48H299.063C298.32 237.48 297.578 237.48 296.823 237.48C296.069 237.48 295.314 237.48 294.547 237.567C289.762 237.924 285.025 238.753 280.404 240.041C278.229 240.608 275.995 240.916 273.747 240.957H273.265C273.772 243.11 274.403 245.461 275.096 247.923L276.445 247.775C279.897 247.267 282.854 246.339 285.7 245.671C288.546 245.003 290.958 243.555 293.396 242.764C295.129 242.522 296.883 242.459 298.63 242.578C299.211 242.578 299.768 242.578 300.313 242.467C300.857 242.355 301.476 242.368 302.032 242.293C303.171 242.157 304.222 241.947 305.262 241.737L298.766 242.392C297.182 242.491 299.805 241.217 300.968 240.957C301.463 240.747 302.206 241.724 302.738 241.514C303.818 241.398 304.881 241.158 305.905 240.796C306.388 240.586 306.363 241.477 306.598 241.365C307.374 241.191 308.121 240.904 308.813 240.512L306.586 237.765ZM293.817 237.765C294.207 237.565 294.645 237.478 295.082 237.513C295.519 237.548 295.938 237.703 296.291 237.963C295.46 238.16 294.586 238.063 293.817 237.691V237.765ZM306.499 237.765H306.363H306.276L305.843 237.839H305.744C305.533 237.895 305.311 237.901 305.097 237.859C304.883 237.816 304.681 237.724 304.507 237.592H306.437L306.499 237.765ZM305.237 266L299.286 274.068C295.809 273.944 292.381 273.932 288.942 273.87C287.209 273.87 285.452 273.796 283.695 273.697C282.718 270.974 281.678 268.005 280.627 264.924C284.473 265.214 288.337 265.214 292.183 264.924C296.811 264.652 301.327 264.59 305.237 266ZM294.027 224.476C288.397 224.228 282.99 224.476 277.546 224.476C275.665 224.476 273.76 224.476 271.842 224.476C272.361 219.44 274.106 216.582 276.791 215.679C277.793 215.679 278.796 215.53 279.785 215.444C283.151 215.852 287.383 218.314 292.084 222.583C292.629 223.189 293.297 223.82 293.977 224.476H294.027Z" fill="black"/>
	<path d="M288.175 281.479C291.887 275.638 295.673 269.873 299.719 264.267C301.736 261.459 310.397 250.657 312.451 247.947C312.563 247.799 312.773 247.947 312.674 248.145C310.472 251.783 302.367 262.807 300.301 265.591C296.242 271.172 292.271 275.997 288.361 281.677C288.299 281.813 288.076 281.627 288.175 281.479Z" fill="#263238"/>
	<path d="M272.028 234.196C273.698 248.549 288.929 288.032 288.929 288.032L313.292 254.995L277.509 215.5C272.931 216.354 270.592 222.256 272.028 234.196Z" fill="#263238"/>
	<path d="M315.73 293.594L320.345 338.137H214.74C214.74 338.137 214.356 321.322 218.91 296.44C218.91 296.44 213.614 281.691 217.734 270.679C224.626 252.243 239.424 233.448 248.803 223.067C262.228 208.219 276.024 211.931 286.245 222.139C288.843 224.725 314.245 256.722 317.635 272.176C320.605 285.786 315.73 293.594 315.73 293.594Z" fill="#FAD6D1"/>
	<path d="M315.742 293.59L317.598 311.482H216.571C217.152 306.904 217.919 301.856 218.909 296.412C218.909 296.412 213.626 281.65 217.734 270.651C224.626 252.215 239.424 233.42 248.803 223.026C262.24 208.178 276.024 211.89 286.257 222.111C288.855 224.684 314.245 256.681 317.647 272.148C320.605 285.795 315.742 293.59 315.742 293.59Z" fill="#A4D9B2"/>
	<path d="M275.542 291.934C269.734 291.977 263.939 292.507 258.219 293.518C255.374 294.062 252.565 294.755 249.756 295.51C248.358 295.881 246.96 296.203 245.549 296.524C244.094 296.897 242.597 297.076 241.095 297.057C240.959 297.057 240.934 297.267 241.095 297.279C242.491 297.493 243.902 297.597 245.314 297.589C246.694 297.528 248.067 297.363 249.422 297.094C252.305 296.574 255.176 295.856 258.083 295.349C263.886 294.235 269.702 293.122 275.567 292.466C275.789 292.441 275.765 291.922 275.542 291.934Z" fill="#263238"/>
	<path d="M289.151 298.954C284.494 297.96 279.779 297.266 275.033 296.876C272.658 296.69 270.282 296.665 267.894 296.702C266.756 296.702 265.617 296.764 264.479 296.826C263.341 296.888 262.004 297.135 260.767 297.185C260.631 297.185 260.618 297.408 260.767 297.408C262.004 297.408 263.13 297.63 264.318 297.705L267.869 297.927C270.232 298.076 272.596 298.261 274.971 298.385C279.723 298.645 284.437 298.954 289.176 299.387C289.324 299.412 289.337 299.004 289.151 298.954Z" fill="#263238"/>
	<path opacity="0.1" d="M301.339 241.853L298.74 242.113C297.305 242.199 299.322 241.16 300.584 240.776C299.965 239.898 299.347 239.032 298.753 238.19C298.604 237.968 298.444 237.757 298.295 237.547L298.072 237.238C297.652 237.238 297.231 237.238 296.835 237.238C296.08 237.238 295.325 237.238 294.558 237.324C289.774 237.682 285.037 238.511 280.416 239.799C278.241 240.366 276.006 240.673 273.759 240.714C272.707 240.714 271.433 240.603 270.282 240.504C269.131 240.405 267.906 240.244 266.719 240.046C261.657 238.979 256.73 237.348 252.032 235.184C249.457 234.188 246.76 233.543 244.014 233.266C242.777 233.142 241.539 233.055 240.364 232.981C238.186 235.728 235.922 238.71 233.707 241.84H233.843C237.555 241.642 241.354 241.246 244.608 242.051C245.437 242.236 246.229 242.385 247.082 242.533C247.501 242.589 247.914 242.676 248.32 242.793L248.914 242.942C249.099 242.942 249.297 243.041 249.582 243.14C252.255 244.288 255.004 245.251 257.81 246.023C260.759 246.836 263.78 247.362 266.83 247.594C268.364 247.718 269.886 247.767 271.383 247.78H272.497H273.808C274.712 247.78 275.578 247.643 276.456 247.544C279.908 247.037 282.866 246.109 285.711 245.441C288.557 244.773 290.97 243.325 293.408 242.533C295.141 242.291 296.895 242.229 298.641 242.348C299.223 242.348 299.78 242.348 300.324 242.236C300.869 242.125 301.128 242.236 301.562 242.125L301.339 241.853ZM293.816 237.695C294.206 237.496 294.644 237.408 295.081 237.443C295.518 237.478 295.937 237.634 296.291 237.893C295.467 238.113 294.594 238.043 293.816 237.695ZM315.457 265.745H315.271H315.444H315.457ZM317.647 272.155C317.194 270.26 316.585 268.406 315.828 266.612C312.362 267.267 308.79 267.084 305.41 266.079C301.5 264.595 296.897 264.657 292.133 264.842C287.369 265.028 282.383 265.436 278.077 264.496L274.835 263.889C274.283 263.811 273.737 263.691 273.202 263.531L272.398 263.32C272.091 263.25 271.789 263.159 271.495 263.048C268.05 261.643 264.526 260.441 260.94 259.447C257.219 258.406 253.408 257.714 249.557 257.381C247.614 257.22 245.697 257.146 243.791 257.109H242.368C241.898 257.109 241.279 257.109 240.747 257.109C239.634 257.109 238.557 257.27 237.481 257.381C233.527 258.078 229.612 258.978 225.751 260.078C224.353 260.45 223.041 260.895 221.804 261.316C220.641 263.617 219.577 265.943 218.636 268.257C220.195 268.047 221.73 267.775 223.252 267.465C226.271 266.847 229.203 266.055 232.111 265.362C234.938 264.606 237.846 264.191 240.772 264.125C242.17 264.125 243.791 264.248 245.301 264.36C246.81 264.471 248.382 264.681 249.928 264.929C256.463 266.238 262.835 268.254 268.933 270.942C272.209 272.155 275.628 272.936 279.104 273.268C282.408 273.59 285.674 273.751 288.891 273.788C295.338 273.899 301.747 273.862 308.491 274.58C311.694 274.775 314.907 274.734 318.104 274.456C317.968 273.763 317.82 272.971 317.61 272.155H317.647ZM153.949 312.33L154.914 312.194V312.269L153.949 312.343V312.33ZM317.276 308.074C316.768 308.012 316.236 307.95 315.679 307.864C319.527 308.643 310.557 309.992 305.447 308.173C301.537 306.688 296.934 306.75 292.17 306.936C287.407 307.121 282.42 307.542 278.114 306.602L274.873 305.995C274.321 305.911 273.776 305.791 273.239 305.637L272.435 305.426C272.163 305.352 271.903 305.29 271.532 305.154C268.087 303.749 264.563 302.547 260.977 301.553C257.256 300.512 253.445 299.82 249.594 299.487C247.652 299.326 245.734 299.24 243.828 299.215H242.405C241.935 299.215 241.316 299.215 240.784 299.215C239.692 299.249 238.601 299.34 237.518 299.487C233.563 300.178 229.648 301.078 225.788 302.184C222.682 303.013 220.072 304.164 217.498 305.043C217.201 306.973 216.941 308.841 216.706 310.635C218.933 310.4 221.136 310.041 223.289 309.596C226.308 308.99 229.24 308.185 232.148 307.505C234.975 306.749 237.883 306.334 240.809 306.268C242.207 306.268 243.828 306.391 245.338 306.503C246.847 306.614 248.419 306.824 249.965 307.072C255.05 308.026 260.025 309.493 264.813 311.452H317.61L317.276 308.074ZM288.236 224.357C284.635 224.357 281.096 224.468 277.533 224.518C274.316 224.592 271.049 224.53 267.733 224.332C264.251 224.108 260.812 223.439 257.501 222.34C255.546 221.623 253.578 220.917 251.586 220.262C254.157 217.793 257.177 215.84 260.483 214.508H260.693L261.51 214.694C262.045 214.838 262.591 214.941 263.143 215.003L266.409 215.498C270.102 216.002 273.844 216.035 277.545 215.597C280.774 217.283 283.718 219.467 286.268 222.068C286.578 222.439 287.258 223.219 288.199 224.357H288.236ZM317.424 284.157C316.459 284.157 315.481 284.219 314.504 284.305C311.385 284.495 308.284 284.908 305.224 285.542C302.205 286.149 299.272 286.953 296.365 287.634C293.538 288.395 290.63 288.811 287.704 288.871C286.318 288.871 284.685 288.747 283.175 288.636C281.665 288.524 280.094 288.314 278.547 288.067C271.866 286.941 265.667 284.516 259.542 282.066C256.273 280.845 252.858 280.059 249.384 279.727C246.068 279.418 242.814 279.245 239.584 279.22C233.138 279.096 226.741 279.146 219.985 278.416C218.751 278.312 217.512 278.275 216.273 278.304C216.137 280.907 216.249 283.517 216.607 286.099C218.795 286.045 220.977 286.35 223.066 287.003C226.976 288.487 231.579 288.425 236.342 288.24C241.106 288.054 246.093 287.634 250.398 288.574L253.653 289.18C254.2 289.265 254.741 289.385 255.273 289.539L256.078 289.749C256.383 289.824 256.685 289.915 256.981 290.022C260.426 291.431 263.95 292.637 267.535 293.635C271.259 294.664 275.07 295.352 278.919 295.689C280.861 295.862 282.791 295.936 284.697 295.961H286.12C286.578 295.961 287.196 295.961 287.728 295.961C288.842 295.961 289.918 295.787 290.995 295.676C294.948 294.983 298.863 294.087 302.725 292.991C306.573 291.952 309.654 290.43 312.846 289.527C314.025 289.305 315.222 289.193 316.422 289.193H317.535C317.865 287.972 318.121 286.732 318.302 285.481C318.302 285.221 318.377 284.936 318.401 284.652C318.401 284.466 318.401 284.268 318.401 284.07L317.424 284.157ZM313.601 284.701C314.093 284.497 314.624 284.403 315.156 284.427C315.689 284.45 316.209 284.59 316.682 284.837C315.648 285.062 314.574 285.016 313.564 284.701H313.601Z" fill="black"/>
	<path d="M268.711 321.387C268.066 321.927 267.561 322.614 267.239 323.391C266.884 324.129 266.63 324.912 266.484 325.718C266.322 326.532 266.252 327.362 266.274 328.192C266.269 328.998 266.347 329.803 266.509 330.593C266.682 331.36 267.041 331.978 267.499 332.003C267.621 332.025 267.746 332.01 267.861 331.962C267.975 331.914 268.072 331.833 268.142 331.731C268.338 331.438 268.477 331.111 268.55 330.766C268.711 329.951 268.737 329.115 268.625 328.291C268.565 327.449 268.302 326.634 267.857 325.916C268.508 326.529 268.971 327.314 269.194 328.18C269.476 329.049 269.573 329.968 269.478 330.877C269.435 331.384 269.269 331.872 268.996 332.3C268.829 332.56 268.595 332.771 268.318 332.91C268.042 333.05 267.733 333.112 267.424 333.092C267.123 333.076 266.829 332.989 266.567 332.839C266.304 332.688 266.081 332.478 265.915 332.226C265.64 331.801 265.439 331.332 265.321 330.84C265.117 329.952 265.034 329.041 265.074 328.13C265.083 327.226 265.216 326.326 265.469 325.458C265.75 324.592 266.167 323.778 266.707 323.045C267.197 322.307 267.895 321.73 268.711 321.387Z" fill="#263238"/>
	<path d="M242.876 221.679C245.971 225.125 249.758 227.878 253.991 229.759C258.223 231.639 262.805 232.605 267.437 232.592C281.567 232.592 291.515 222.236 291.515 222.236C291.515 222.236 284.747 212.176 267.041 212.176C251.092 212.127 242.876 221.679 242.876 221.679Z" fill="#FAD6D1"/>
	<path d="M276.458 218.109C275.53 220.831 266.968 232.536 258.48 230.952C254.112 230.136 256.364 214.743 256.364 214.743V213.58L255.745 197.297L279.254 187.807C279.254 187.807 276.78 217.329 276.458 218.109Z" fill="#FAD6D1"/>
	<path d="M278.238 198.831C275.811 202.682 272.605 205.983 268.828 208.523C265.05 211.063 260.783 212.785 256.301 213.58L255.682 197.297L279.191 187.807C279.191 187.807 278.758 192.855 278.238 198.831Z" fill="#263238"/>
	<path d="M236.07 170.147C230.75 198.247 246.983 204.607 253.046 205.745C258.54 206.784 277.409 209.605 285.613 182.236C293.816 154.866 282.42 143.471 269.96 140.439C257.501 137.408 241.391 142.035 236.07 170.147Z" fill="#FAD6D1"/>
	<path d="M246.538 165.3C247.196 165.287 247.853 165.238 248.505 165.151C249.207 165.187 249.901 164.996 250.485 164.607C250.644 164.447 250.746 164.239 250.775 164.015C250.804 163.792 250.759 163.565 250.646 163.369C250.368 163.016 249.998 162.745 249.577 162.586C249.157 162.427 248.7 162.385 248.258 162.466C247.339 162.489 246.459 162.845 245.783 163.468C245.641 163.621 245.545 163.811 245.508 164.016C245.47 164.222 245.493 164.433 245.572 164.626C245.652 164.819 245.785 164.985 245.956 165.105C246.128 165.224 246.329 165.292 246.538 165.3Z" fill="#263238"/>
	<path d="M265.94 167.848C265.305 167.667 264.681 167.448 264.072 167.193C263.381 167.065 262.756 166.702 262.302 166.166C262.185 165.972 262.137 165.744 262.167 165.519C262.196 165.294 262.3 165.086 262.463 164.928C262.815 164.668 263.229 164.506 263.664 164.458C264.098 164.411 264.538 164.479 264.938 164.656C265.823 164.914 266.584 165.486 267.078 166.265C267.178 166.443 267.225 166.647 267.214 166.851C267.202 167.056 267.133 167.252 267.013 167.419C266.894 167.585 266.729 167.714 266.539 167.79C266.349 167.866 266.141 167.886 265.94 167.848Z" fill="#263238"/>
	<path d="M249.285 172.516C249.285 172.441 249.112 172.516 249.1 172.664C248.828 174.582 248.184 176.747 246.328 177.081C246.328 177.081 246.328 177.18 246.328 177.193C248.493 177.267 249.322 174.384 249.285 172.516Z" fill="#263238"/>
	<path d="M245.624 171.014C245.53 171.371 245.472 171.735 245.45 172.103C245.289 172.341 245.093 172.554 244.869 172.734C244.664 172.931 244.407 173.064 244.127 173.117C243.848 173.17 243.56 173.14 243.297 173.031C242.209 172.561 242.06 171.249 242.382 170.099C242.382 170.012 242.456 169.975 242.493 170.037C242.778 170.779 243.124 171.546 243.817 171.645C244.51 171.744 245.054 171.249 245.574 171.027L245.624 171.014Z" fill="#263238"/>
	<path d="M248.964 174.663C248.782 175.151 248.47 175.579 248.061 175.901C247.828 176.08 247.56 176.208 247.274 176.276C246.988 176.345 246.691 176.351 246.403 176.297C246.108 176.239 245.831 176.113 245.595 175.928C245.358 175.743 245.169 175.504 245.042 175.232C244.827 174.75 244.725 174.226 244.745 173.698C244.763 173.387 244.801 173.077 244.856 172.77C244.976 172.127 245.238 171.518 245.623 170.988C245.514 171.447 245.451 171.915 245.437 172.387C245.408 172.799 245.408 173.212 245.437 173.624C245.549 174.49 245.895 175.257 246.551 175.344C247.207 175.43 247.788 175.022 248.271 174.255C248.686 173.465 249.022 172.636 249.273 171.78C249.406 172.752 249.3 173.742 248.964 174.663Z" fill="#263238"/>
	<path d="M260.893 174.44C260.893 174.366 261.017 174.564 260.992 174.638C260.497 176.519 260.237 178.759 261.808 179.798C261.808 179.798 261.808 179.922 261.808 179.897C259.742 179.105 260.113 176.135 260.893 174.44Z" fill="#263238"/>
	<path d="M264.839 174.485C264.798 174.849 264.711 175.206 264.579 175.549C264.636 175.833 264.732 176.107 264.864 176.365C264.975 176.625 265.16 176.848 265.395 177.006C265.629 177.164 265.905 177.251 266.188 177.256C267.425 177.256 267.994 176.093 268.192 174.918C268.192 174.831 268.192 174.781 268.105 174.819C267.561 175.388 266.868 175.957 266.262 175.784C265.656 175.61 265.321 174.942 264.888 174.546L264.839 174.485Z" fill="#263238"/>
	<path d="M260.359 176.479C260.32 177.013 260.427 177.548 260.668 178.025C260.819 178.279 261.02 178.5 261.258 178.674C261.496 178.849 261.767 178.973 262.054 179.04C262.348 179.101 262.652 179.092 262.942 179.015C263.232 178.937 263.5 178.794 263.725 178.595C264.111 178.235 264.407 177.79 264.591 177.295C264.702 177.006 264.789 176.708 264.851 176.405C264.999 175.77 264.999 175.109 264.851 174.474C264.78 174.937 264.655 175.389 264.479 175.823C264.33 176.221 264.148 176.606 263.935 176.974C263.502 177.728 262.883 178.298 262.24 178.112C261.596 177.926 261.176 177.32 261.089 176.454C261.024 175.551 261.045 174.644 261.151 173.744C260.674 174.58 260.402 175.517 260.359 176.479Z" fill="#263238"/>
	<path d="M258.577 189.662C258.156 190.169 257.772 190.899 257.067 190.986C256.347 191.048 255.623 190.959 254.939 190.726C254.939 190.726 254.815 190.726 254.865 190.837C255.184 191.186 255.592 191.443 256.045 191.58C256.497 191.717 256.979 191.73 257.438 191.617C257.822 191.467 258.152 191.208 258.387 190.871C258.623 190.534 258.754 190.135 258.762 189.724C258.787 189.612 258.626 189.587 258.577 189.662Z" fill="#263238"/>
	<path d="M250.621 181.748C250.621 181.748 249.867 184.581 249.693 185.942C250.934 186.408 252.277 186.533 253.582 186.305C254.888 186.077 256.108 185.503 257.117 184.643C257.241 184.532 257.117 184.359 256.932 184.421C255.048 185.396 252.898 185.73 250.807 185.373C250.807 184.99 252.279 180.56 252.044 180.523C250.979 180.48 249.913 180.585 248.877 180.832C250.287 174.881 252.589 169.202 253.962 163.25C253.962 163.04 253.702 162.928 253.616 163.114C250.72 168.892 248.951 175.71 247.33 181.822C247.083 182.577 250.052 181.909 250.621 181.748Z" fill="#263238"/>
	<path d="M280.737 183.526C280.737 183.526 287.839 175.26 291.65 177.884C295.461 180.507 289.485 192.917 284.573 194.204C283.954 194.411 283.3 194.492 282.65 194.44C281.999 194.388 281.366 194.205 280.788 193.903C280.21 193.6 279.699 193.183 279.287 192.678C278.874 192.172 278.568 191.589 278.386 190.962L280.737 183.526Z" fill="#FAD6D1"/>
	<path d="M289.845 181.389C289.858 181.395 289.869 181.404 289.877 181.416C289.885 181.428 289.889 181.442 289.889 181.457C289.889 181.471 289.885 181.486 289.877 181.498C289.869 181.51 289.858 181.519 289.845 181.525C286.392 182.527 284.338 185.435 282.792 188.503C283.016 188.189 283.307 187.927 283.643 187.737C283.979 187.546 284.352 187.431 284.737 187.399C285.122 187.367 285.51 187.419 285.873 187.553C286.235 187.686 286.565 187.896 286.838 188.169C286.924 188.244 286.838 188.367 286.726 188.343C286.164 188.096 285.538 188.031 284.937 188.157C284.335 188.284 283.789 188.595 283.373 189.048C282.676 189.805 282.062 190.635 281.542 191.523C281.357 191.807 280.837 191.597 280.985 191.263V191.188C281.381 186.944 285.266 181.364 289.845 181.389Z" fill="#263238"/>
	<path d="M284.203 193.082C284.117 193.312 283.965 193.512 283.765 193.655C283.565 193.798 283.328 193.879 283.082 193.886C282.837 193.894 282.594 193.828 282.386 193.698C282.178 193.567 282.014 193.377 281.914 193.153C281.814 192.928 281.783 192.679 281.825 192.437C281.867 192.195 281.98 191.971 282.15 191.794C282.32 191.616 282.539 191.494 282.779 191.441C283.019 191.388 283.269 191.408 283.498 191.499C283.799 191.617 284.042 191.85 284.174 192.146C284.306 192.442 284.317 192.779 284.203 193.082Z" fill="#455A64"/>
	<path d="M283.534 192.851C283.479 192.993 283.37 193.108 283.231 193.17C283.093 193.232 282.935 193.238 282.792 193.185C282.72 193.161 282.653 193.122 282.597 193.07C282.54 193.019 282.495 192.956 282.464 192.887C282.432 192.817 282.416 192.742 282.415 192.666C282.414 192.589 282.428 192.513 282.458 192.443C282.483 192.371 282.522 192.304 282.573 192.247C282.624 192.19 282.686 192.144 282.755 192.112C282.825 192.08 282.9 192.062 282.976 192.059C283.053 192.056 283.129 192.069 283.2 192.097C283.272 192.124 283.337 192.165 283.393 192.218C283.449 192.271 283.493 192.334 283.524 192.404C283.555 192.475 283.572 192.55 283.574 192.627C283.576 192.704 283.562 192.78 283.534 192.851Z" fill="#263238"/>
	<path d="M286.429 191.801C286.388 191.907 286.327 192.005 286.248 192.088C286.169 192.17 286.074 192.237 285.97 192.283C285.865 192.329 285.752 192.353 285.638 192.356C285.523 192.358 285.41 192.337 285.303 192.296C285.089 192.212 284.916 192.046 284.823 191.835C284.73 191.624 284.725 191.385 284.809 191.17C284.892 190.955 285.058 190.782 285.269 190.689C285.48 190.596 285.72 190.591 285.934 190.675C286.148 190.76 286.319 190.926 286.412 191.137C286.504 191.347 286.511 191.585 286.429 191.801Z" fill="#455A64"/>
	<path d="M285.441 182.32C282.212 181.751 274.8 171.803 276.384 156.077C276.384 156.077 275.938 170.306 276.755 172.496C277.572 174.686 272.61 166.903 273.711 154.196C273.711 154.196 266.102 158.44 259.927 159.405C253.753 160.37 250.103 159.9 249.72 159.405C249.336 158.91 258.467 157.178 261.177 154.716C261.177 154.716 244.399 160.247 237 159.937C236.146 159.937 237.186 142.343 249.373 136.28C261.561 130.217 278.586 140.313 282.867 145.535C282.867 145.535 288.448 147.007 293.62 156.114C298.792 165.221 288.856 182.939 285.441 182.32Z" fill="#263238"/>
</svg>
