<svg width="791" height="874" viewBox="0 0 791 874" fill="none" xmlns="http://www.w3.org/2000/svg">
	<g opacity="0.08">
	<path d="M233.417 504.668L258.772 512.52L261.321 513.492C263.858 514.472 265.495 514.83 266.989 517.428C268.208 519.552 268.815 522.619 269.35 525.027L271.566 534.74L276.42 556.198C277.006 558.847 278.512 564.565 278.422 567.032C278.284 570.833 275.546 573.163 272.968 575.558L268.738 579.474L249.322 597.454C246.474 600.1 241.525 605.454 237.833 606.172C235.829 606.562 232.717 605.849 230.757 605.245L199.551 595.581L196.368 594.358L190.733 592.613C188.939 592.055 187.156 591.182 185.932 589.71C184.053 587.449 183.295 583.021 182.657 580.135L179.186 565.044L175.902 550.486L174.586 544.614C174.019 542.249 173.278 539.007 174.16 536.644C175.166 533.94 178.247 531.478 180.286 529.514L195.66 515.27L207.02 504.773C209.08 502.895 211.158 500.702 213.959 500.016C216.592 499.37 217.809 500.253 220.199 500.573L233.419 504.667L233.417 504.668ZM214.921 504.641C213.208 505.149 210.66 507.761 209.266 509.033L197.934 519.54L183.513 532.891C182.087 534.266 178.9 536.781 178.506 538.704C178.247 539.961 178.789 542.136 179.094 543.4L180.783 550.812L186.868 577.64C187.433 579.979 188.254 585.44 189.855 587.01C190.649 587.788 191.9 588.223 192.941 588.548L198.142 590.159L201.326 591.382L231.232 600.643C232.863 601.146 236.072 602.002 237.643 601.348C238.818 600.859 240.507 599.256 241.478 598.352L246.854 593.365L265.142 576.461L271.643 570.397C272.634 569.422 273.779 568.256 273.762 566.778C273.74 564.906 271.909 557.365 271.37 555.11L267.049 535.955L264.777 525.987C264.444 524.487 263.766 521.26 263.075 520.027C262.084 518.264 260.763 518.197 259.111 517.559L256.565 516.576L232.51 509.127L219.941 505.234C218.298 505.018 216.529 504.166 214.92 504.641L214.921 504.641Z" fill="#FDBE41" stroke="#FDBE41" stroke-width="2.6645"/>
	<path d="M567.217 524.609C570.259 525.488 573.538 524.681 575.825 522.491L609.106 490.623C611.396 488.43 612.344 485.181 611.591 482.1L600.604 437.136C599.862 434.099 597.578 431.676 594.591 430.756L549.995 417.018C546.912 416.068 543.556 416.865 541.229 419.1L508.079 450.931C505.797 453.123 504.852 456.363 505.6 459.437L516.779 505.387C517.532 508.482 519.885 510.937 522.944 511.821L567.217 524.609Z" fill="#FDBE41"/>
	<path d="M568.583 547.378C567.834 544.284 565.487 541.828 562.431 540.94L518.131 528.058C515.086 527.173 511.8 527.978 509.509 530.172L476.235 562.033C473.945 564.226 472.997 567.475 473.75 570.556L484.827 615.887C485.579 618.968 487.918 621.414 490.963 622.304L535.227 635.242C538.28 636.135 541.577 635.327 543.871 633.124L577.087 601.228C579.367 599.039 580.311 595.803 579.567 592.731L568.583 547.378Z" fill="#8BC7D7"/>
	<path d="M406.822 555.238C403.774 554.347 400.482 555.151 398.188 557.348L364.92 589.203C362.63 591.397 361.682 594.645 362.435 597.726L373.512 643.059C374.265 646.139 376.602 648.585 379.645 649.475L423.98 662.453C427.034 663.346 430.332 662.539 432.627 660.335L465.833 628.449C468.118 626.256 469.061 623.011 468.309 619.935L457.231 574.596C456.478 571.514 454.139 569.069 451.095 568.179L406.822 555.238Z" fill="#F4B9C1"/>
	<path d="M296.098 582.662C293.056 581.782 289.775 582.588 287.488 584.778L253.773 617.05C251.481 619.243 250.534 622.493 251.287 625.574L262.226 670.342C262.978 673.423 265.317 675.869 268.362 676.759L312.632 689.7C315.682 690.591 318.975 689.785 321.269 687.587L354.586 655.661C356.873 653.469 357.82 650.226 357.071 647.149L346.03 601.763C345.277 598.67 342.927 596.216 339.869 595.331L296.098 582.662Z" fill="#C6A6D1"/>
	<path d="M344.609 579.055C347.654 579.939 350.939 579.134 353.229 576.941L386.508 545.074C388.797 542.883 389.744 539.638 388.995 536.56L377.842 490.712C377.091 487.627 374.751 485.177 371.703 484.286L327.437 471.347C324.388 470.456 321.096 471.26 318.802 473.457L285.53 505.316C283.242 507.508 282.294 510.752 283.043 513.831L294.222 559.781C294.974 562.871 297.321 565.324 300.375 566.211L344.609 579.055Z" fill="#FDBE41"/>
	<path d="M438.679 444.126C435.631 443.239 432.342 444.045 430.05 446.241L396.733 478.167C394.444 480.361 393.498 483.608 394.251 486.688L405.463 532.575C406.217 535.661 408.561 538.109 411.611 538.995L455.922 551.88C458.967 552.766 462.254 551.96 464.544 549.767L497.826 517.898C500.113 515.709 501.061 512.468 500.316 509.392L489.196 463.482C488.447 460.39 486.101 457.935 483.047 457.045L438.679 444.126Z" fill="#A4D9B2"/>
	<path d="M470.669 333.587C467.625 332.697 464.337 333.498 462.043 335.688L428.712 367.515C426.417 369.706 425.465 372.955 426.215 376.038L437.258 421.431C438.008 424.515 440.347 426.964 443.393 427.855L487.729 440.833C490.779 441.726 494.074 440.921 496.369 438.722L529.68 406.801C531.969 404.607 532.915 401.36 532.162 398.28L521.085 352.947C520.333 349.866 517.994 347.42 514.95 346.53L470.669 333.587Z" fill="#A4D9B2"/>
	<path d="M240.737 684.51C243.022 682.31 243.959 679.059 243.197 675.98L232.126 631.243C231.364 628.163 229.016 625.724 225.968 624.844L181.085 611.885C178.036 611.004 174.748 611.818 172.462 614.019L139.179 646.056C136.89 648.26 135.952 651.52 136.721 654.603L147.884 699.369C148.651 702.445 151 704.879 154.047 705.756L198.895 718.655C201.943 719.532 205.228 718.717 207.512 716.516L240.737 684.51Z" fill="#A4D9B2"/>
	<path d="M424.008 140.045C420.964 139.156 417.676 139.956 415.383 142.147L382.051 173.974C379.756 176.165 378.805 179.414 379.555 182.497L390.597 227.89C391.347 230.974 393.686 233.423 396.732 234.314L441.068 247.292C444.118 248.185 447.413 247.379 449.708 245.18L483.019 213.26C485.308 211.066 486.254 207.819 485.502 204.739L474.425 159.405C473.672 156.324 471.333 153.879 468.289 152.989L424.008 140.045Z" fill="#A4D9B2"/>
	<path d="M519.655 330.249C522.705 331.14 525.998 330.335 528.292 328.137L561.605 296.214C563.894 294.021 564.84 290.773 564.088 287.693L553.148 242.922C552.395 239.841 550.057 237.395 547.012 236.505L502.74 223.564C499.691 222.673 496.399 223.478 494.105 225.674L460.833 257.534C458.545 259.725 457.597 262.969 458.346 266.048L469.253 310.885C470.003 313.97 472.343 316.419 475.391 317.31L519.655 330.249Z" fill="#F5C26A"/>
	<path d="M408.358 357.435C411.398 358.318 414.679 357.516 416.968 355.329L450.308 323.495C452.602 321.304 453.554 318.055 452.804 314.972L441.901 270.151C441.15 267.062 438.804 264.61 435.751 263.722L391.438 250.837C388.397 249.952 385.115 250.754 382.824 252.942L349.491 284.77C347.194 286.964 346.243 290.217 346.997 293.302L357.959 338.165C358.713 341.252 361.059 343.701 364.11 344.587L408.358 357.435Z" fill="#FDBE41"/>
	<path d="M359.381 360.867C356.337 359.979 353.051 360.78 350.758 362.97L317.429 394.794C315.132 396.988 314.181 400.241 314.935 403.326L326.01 448.649C326.763 451.73 329.101 454.176 332.146 455.066L376.41 468.004C379.463 468.897 382.76 468.089 385.054 465.886L418.266 433.994C420.548 431.803 421.492 428.563 420.744 425.489L409.726 380.197C408.975 377.11 406.633 374.66 403.584 373.77L359.381 360.867Z" fill="#F4B9C1"/>
	<path d="M248.645 388.194C245.6 387.308 242.313 388.113 240.022 390.306L206.305 422.58C204.018 424.769 203.069 428.01 203.814 431.087L214.66 475.871C215.409 478.964 217.754 481.419 220.809 482.309L265.177 495.228C268.224 496.115 271.513 495.309 273.805 493.113L307.122 461.187C309.411 458.993 310.357 455.746 309.605 452.666L298.53 407.34C297.776 404.255 295.432 401.807 292.383 400.92L248.645 388.194Z" fill="#FDBE41"/>
	<path d="M297.101 384.637C300.149 385.527 303.439 384.722 305.733 382.527L339.002 350.67C341.293 348.476 342.24 345.228 341.487 342.147L330.548 297.38C329.795 294.297 327.455 291.851 324.409 290.962L280.208 278.06C277.16 277.17 273.869 277.975 271.576 280.171L238.307 312.027C236.016 314.221 235.069 317.469 235.822 320.55L246.76 365.318C247.514 368.4 249.854 370.846 252.9 371.735L297.101 384.637Z" fill="#A4D9B2"/>
	<path d="M543.011 334.368C540.628 336.623 538.881 339.466 537.949 342.612C537.016 345.758 536.93 349.093 537.7 352.282L547.349 393.031C548.1 396.212 549.67 399.14 551.903 401.525C554.136 403.91 556.955 405.668 560.079 406.626L599.701 418.75C602.867 419.721 606.235 419.829 609.458 419.065C612.681 418.301 615.642 416.692 618.037 414.403L622.188 410.492C622.942 409.718 623.367 408.683 623.375 407.603C623.384 406.522 622.974 405.481 622.233 404.696C621.492 403.911 620.475 403.442 619.397 403.389C618.318 403.335 617.26 403.701 616.445 404.409L612.302 408.36C610.983 409.622 609.351 410.51 607.575 410.931C605.799 411.352 603.942 411.292 602.197 410.756L562.575 398.631C560.838 398.107 559.27 397.135 558.028 395.813C556.786 394.491 555.914 392.865 555.498 391.099L545.849 350.35C545.425 348.591 545.47 346.75 545.98 345.013C546.49 343.276 547.447 341.703 548.755 340.452L578.728 311.827C580.047 310.565 581.679 309.677 583.455 309.256C585.232 308.835 587.088 308.895 588.833 309.431L628.455 321.556C630.185 322.087 631.746 323.063 632.98 324.386C634.215 325.71 635.081 327.334 635.491 329.097L645.14 369.846C645.556 371.601 645.505 373.434 644.993 375.163C644.482 376.892 643.528 378.458 642.225 379.705L640.046 381.77C639.646 382.15 639.325 382.605 639.102 383.108C638.878 383.612 638.756 384.155 638.742 384.706C638.729 385.257 638.824 385.805 639.023 386.319C639.222 386.833 639.52 387.302 639.901 387.701C640.28 388.1 640.735 388.421 641.238 388.645C641.742 388.868 642.285 388.99 642.836 389.004C643.386 389.017 643.934 388.921 644.448 388.722C644.962 388.524 645.432 388.225 645.83 387.844L648.009 385.778C650.372 383.52 652.102 380.683 653.029 377.549C653.955 374.415 654.045 371.093 653.29 367.914L643.64 327.165C642.89 323.985 641.32 321.057 639.087 318.672C636.853 316.287 634.035 314.528 630.911 313.571L591.289 301.447C588.121 300.485 584.756 300.381 581.534 301.145C578.313 301.908 575.352 303.513 572.953 305.794L543.011 334.368Z" fill="#8BC7D7"/>
	<path d="M379.338 663.747C376.2 662.792 372.865 662.683 369.671 663.431C366.477 664.179 363.537 665.756 361.148 668.005L330.527 696.573C328.136 698.801 326.369 701.615 325.403 704.737C324.436 707.859 324.304 711.18 325.019 714.368L334.098 754.805C334.822 758.037 336.394 761.018 338.653 763.44C340.912 765.862 343.776 767.638 346.949 768.586L352.401 770.257C353.447 770.528 354.556 770.385 355.499 769.857C356.441 769.329 357.143 768.458 357.458 767.424C357.773 766.391 357.677 765.276 357.19 764.312C356.702 763.348 355.862 762.61 354.843 762.252L349.36 760.61C347.611 760.088 346.032 759.11 344.787 757.775C343.542 756.44 342.675 754.797 342.277 753.015L333.198 712.578C332.794 710.809 332.863 708.965 333.396 707.231C333.93 705.497 334.91 703.933 336.239 702.698L366.86 674.129C368.178 672.889 369.799 672.017 371.561 671.6C373.322 671.183 375.162 671.235 376.897 671.752L416.596 683.62C418.346 684.141 419.924 685.12 421.169 686.455C422.415 687.79 423.281 689.433 423.679 691.215L432.758 731.651C433.153 733.418 433.077 735.257 432.539 736.986C432 738.714 431.018 740.271 429.689 741.501L399.068 770.07C397.75 771.299 396.132 772.163 394.377 772.575C392.622 772.987 390.79 772.933 389.062 772.419L386.189 771.548C385.661 771.389 385.108 771.335 384.559 771.391C384.011 771.446 383.479 771.609 382.994 771.87C382.509 772.131 382.08 772.485 381.732 772.913C381.384 773.34 381.123 773.832 380.966 774.36C380.806 774.887 380.753 775.441 380.808 775.99C380.863 776.538 381.025 777.07 381.286 777.555C381.548 778.041 381.902 778.47 382.329 778.818C382.756 779.166 383.248 779.426 383.776 779.584L386.649 780.454C389.78 781.388 393.101 781.487 396.281 780.74C399.462 779.992 402.392 778.425 404.78 776.194L435.401 747.626C437.792 745.398 439.559 742.584 440.525 739.462C441.491 736.34 441.624 733.019 440.909 729.831L431.83 689.394C431.098 686.165 429.523 683.189 427.265 680.768C425.007 678.347 422.148 676.568 418.979 675.613L379.338 663.747Z" fill="#D0D0D0"/>
	<path d="M538.08 113.633C535.038 112.753 531.757 113.559 529.469 115.749L495.754 148.021C493.463 150.214 492.515 153.463 493.268 156.545L504.207 201.313C504.96 204.394 507.299 206.84 510.343 207.73L554.613 220.67C557.663 221.562 560.956 220.756 563.25 218.558L596.567 186.631C598.854 184.44 599.801 181.197 599.052 178.119L588.011 132.734C587.259 129.641 584.908 127.187 581.851 126.302L538.08 113.633Z" fill="#C6A6D1"/>
	<path d="M218.705 328.016C217.956 324.923 215.609 322.467 212.553 321.578L168.254 308.697C165.208 307.811 161.922 308.617 159.631 310.81L126.358 342.671C124.067 344.865 123.12 348.114 123.873 351.195L134.949 396.526C135.702 399.607 138.041 402.052 141.085 402.942L185.35 415.881C188.402 416.773 191.699 415.965 193.993 413.762L227.209 381.867C229.489 379.678 230.434 376.442 229.69 373.37L218.705 328.016Z" fill="#8BC7D7"/>
	</g>
</svg>
	