<svg width="264" height="152" viewBox="0 0 264 152" fill="none" xmlns="http://www.w3.org/2000/svg">
	<g filter="url(#filter0_b_413_2573)">
	<rect y="6" width="258" height="140" rx="70" fill="#FF6B6B" fill-opacity="0.1"/>
	<path d="M28.12 83.7C27.1067 83.7 26.16 83.52 25.28 83.16C24.4 82.7867 23.6267 82.2733 22.96 81.62C22.3067 80.9533 21.7933 80.1867 21.42 79.32C21.0467 78.4533 20.86 77.5133 20.86 76.5C20.86 75.4867 21.0467 74.5467 21.42 73.68C21.7933 72.8133 22.3067 72.0533 22.96 71.4C23.6267 70.7333 24.4 70.22 25.28 69.86C26.16 69.4867 27.1067 69.3 28.12 69.3C28.7733 69.3 29.4067 69.3733 30.02 69.52C30.6333 69.6667 31.1867 69.88 31.68 70.16C31.8533 70.2533 31.98 70.38 32.06 70.54C32.14 70.6867 32.18 70.8333 32.18 70.98C32.18 71.26 32.0867 71.5067 31.9 71.72C31.7267 71.92 31.5067 72.02 31.24 72.02C31.1467 72.02 31.0467 72.0067 30.94 71.98C30.8467 71.9533 30.76 71.92 30.68 71.88C30.3067 71.6933 29.9067 71.5533 29.48 71.46C29.0533 71.3533 28.6 71.3 28.12 71.3C27.16 71.3 26.2933 71.5333 25.52 72C24.7467 72.4533 24.1333 73.0733 23.68 73.86C23.24 74.6467 23.02 75.5267 23.02 76.5C23.02 77.46 23.24 78.34 23.68 79.14C24.1333 79.9267 24.7467 80.5533 25.52 81.02C26.2933 81.4733 27.16 81.7 28.12 81.7C28.5867 81.7 29.08 81.6467 29.6 81.54C30.12 81.42 30.56 81.2667 30.92 81.08L30.76 81.62V77.82L31.08 78.1H28.46C28.1667 78.1 27.92 78.0067 27.72 77.82C27.5333 77.6333 27.44 77.3933 27.44 77.1C27.44 76.8067 27.5333 76.5667 27.72 76.38C27.92 76.1933 28.1667 76.1 28.46 76.1H31.92C32.2 76.1 32.4333 76.2 32.62 76.4C32.82 76.5867 32.92 76.8267 32.92 77.12V81.56C32.92 81.7733 32.8667 81.9533 32.76 82.1C32.6533 82.2467 32.5333 82.3667 32.4 82.46C31.8 82.8333 31.1333 83.1333 30.4 83.36C29.68 83.5867 28.92 83.7 28.12 83.7ZM40.2258 83.7C39.1191 83.7 38.1591 83.4733 37.3458 83.02C36.5324 82.5533 35.8991 81.92 35.4458 81.12C35.0058 80.3067 34.7858 79.38 34.7858 78.34C34.7858 77.1667 35.0191 76.1667 35.4858 75.34C35.9658 74.5 36.5858 73.86 37.3458 73.42C38.1058 72.9667 38.9124 72.74 39.7658 72.74C40.4191 72.74 41.0391 72.8733 41.6258 73.14C42.2124 73.3933 42.7324 73.7533 43.1858 74.22C43.6524 74.6733 44.0191 75.2133 44.2858 75.84C44.5524 76.4533 44.6924 77.1267 44.7058 77.86C44.6924 78.1267 44.5858 78.3467 44.3858 78.52C44.1858 78.6933 43.9524 78.78 43.6858 78.78H35.9058L35.4258 77.08H42.9458L42.5658 77.44V76.94C42.5391 76.4733 42.3858 76.0667 42.1058 75.72C41.8258 75.36 41.4791 75.0867 41.0658 74.9C40.6524 74.7 40.2191 74.6 39.7658 74.6C39.3658 74.6 38.9791 74.6667 38.6058 74.8C38.2458 74.92 37.9191 75.12 37.6258 75.4C37.3458 75.68 37.1191 76.0533 36.9458 76.52C36.7858 76.9733 36.7058 77.54 36.7058 78.22C36.7058 78.9533 36.8591 79.5933 37.1658 80.14C37.4724 80.6867 37.8858 81.1133 38.4058 81.42C38.9258 81.7133 39.4991 81.86 40.1258 81.86C40.6191 81.86 41.0258 81.8133 41.3458 81.72C41.6658 81.6133 41.9324 81.4867 42.1458 81.34C42.3591 81.1933 42.5458 81.0533 42.7058 80.92C42.9058 80.8 43.1058 80.74 43.3058 80.74C43.5458 80.74 43.7458 80.8267 43.9058 81C44.0658 81.16 44.1458 81.3533 44.1458 81.58C44.1458 81.8733 43.9991 82.14 43.7058 82.38C43.3458 82.7267 42.8458 83.0333 42.2058 83.3C41.5791 83.5667 40.9191 83.7 40.2258 83.7ZM46.8264 73.1H51.5264C51.7931 73.1 52.0131 73.1933 52.1864 73.38C52.3731 73.5533 52.4664 73.7733 52.4664 74.04C52.4664 74.2933 52.3731 74.5067 52.1864 74.68C52.0131 74.8533 51.7931 74.94 51.5264 74.94H46.8264C46.5597 74.94 46.3331 74.8533 46.1464 74.68C45.9731 74.4933 45.8864 74.2733 45.8864 74.02C45.8864 73.7533 45.9731 73.5333 46.1464 73.36C46.3331 73.1867 46.5597 73.1 46.8264 73.1ZM48.9264 70.5C49.2197 70.5 49.4597 70.6 49.6464 70.8C49.8331 70.9867 49.9264 71.2267 49.9264 71.52V80.8C49.9264 81.04 49.9664 81.2333 50.0464 81.38C50.1264 81.5267 50.2331 81.6267 50.3664 81.68C50.5131 81.7333 50.6597 81.76 50.8064 81.76C50.9531 81.76 51.0797 81.7333 51.1864 81.68C51.3064 81.6267 51.4464 81.6 51.6064 81.6C51.7664 81.6 51.9131 81.6733 52.0464 81.82C52.1797 81.9667 52.2464 82.1667 52.2464 82.42C52.2464 82.74 52.0731 83 51.7264 83.2C51.3797 83.4 51.0064 83.5 50.6064 83.5C50.3797 83.5 50.1131 83.48 49.8064 83.44C49.4997 83.4 49.1997 83.3 48.9064 83.14C48.6264 82.98 48.3931 82.7267 48.2064 82.38C48.0197 82.02 47.9264 81.52 47.9264 80.88V71.52C47.9264 71.2267 48.0197 70.9867 48.2064 70.8C48.4064 70.6 48.6464 70.5 48.9264 70.5ZM61.5477 69.5C61.8143 69.5 62.0477 69.6 62.2477 69.8C62.461 69.9867 62.5677 70.2267 62.5677 70.52V82.48C62.5543 82.7733 62.441 83.02 62.2277 83.22C62.0277 83.4067 61.7877 83.5 61.5077 83.5C61.201 83.5 60.9477 83.4067 60.7477 83.22C60.561 83.02 60.4677 82.7733 60.4677 82.48V70.52C60.4677 70.2267 60.5677 69.9867 60.7677 69.8C60.9677 69.6 61.2277 69.5 61.5477 69.5ZM70.5677 69.5C70.8877 69.5 71.141 69.6 71.3277 69.8C71.5143 69.9867 71.6077 70.2267 71.6077 70.52V82.48C71.6077 82.7733 71.5077 83.02 71.3077 83.22C71.121 83.4067 70.8677 83.5 70.5477 83.5C70.2677 83.5 70.0277 83.4067 69.8277 83.22C69.6277 83.02 69.5277 82.7733 69.5277 82.48V70.52C69.5277 70.2267 69.6277 69.9867 69.8277 69.8C70.041 69.6 70.2877 69.5 70.5677 69.5ZM61.4677 75.46H70.5877L70.5677 77.38H61.4477L61.4677 75.46ZM79.5227 83.7C78.416 83.7 77.456 83.4733 76.6427 83.02C75.8293 82.5533 75.196 81.92 74.7427 81.12C74.3027 80.3067 74.0827 79.38 74.0827 78.34C74.0827 77.1667 74.316 76.1667 74.7827 75.34C75.2627 74.5 75.8827 73.86 76.6427 73.42C77.4027 72.9667 78.2093 72.74 79.0627 72.74C79.716 72.74 80.336 72.8733 80.9227 73.14C81.5093 73.3933 82.0293 73.7533 82.4827 74.22C82.9493 74.6733 83.316 75.2133 83.5827 75.84C83.8493 76.4533 83.9893 77.1267 84.0027 77.86C83.9893 78.1267 83.8827 78.3467 83.6827 78.52C83.4827 78.6933 83.2493 78.78 82.9827 78.78H75.2027L74.7227 77.08H82.2427L81.8627 77.44V76.94C81.836 76.4733 81.6827 76.0667 81.4027 75.72C81.1227 75.36 80.776 75.0867 80.3627 74.9C79.9493 74.7 79.516 74.6 79.0627 74.6C78.6627 74.6 78.276 74.6667 77.9027 74.8C77.5427 74.92 77.216 75.12 76.9227 75.4C76.6427 75.68 76.416 76.0533 76.2427 76.52C76.0827 76.9733 76.0027 77.54 76.0027 78.22C76.0027 78.9533 76.156 79.5933 76.4627 80.14C76.7693 80.6867 77.1827 81.1133 77.7027 81.42C78.2227 81.7133 78.796 81.86 79.4227 81.86C79.916 81.86 80.3227 81.8133 80.6427 81.72C80.9627 81.6133 81.2293 81.4867 81.4427 81.34C81.656 81.1933 81.8427 81.0533 82.0027 80.92C82.2027 80.8 82.4027 80.74 82.6027 80.74C82.8427 80.74 83.0427 80.8267 83.2027 81C83.3627 81.16 83.4427 81.3533 83.4427 81.58C83.4427 81.8733 83.296 82.14 83.0027 82.38C82.6427 82.7267 82.1427 83.0333 81.5027 83.3C80.876 83.5667 80.216 83.7 79.5227 83.7ZM88.4233 82.48C88.4233 82.7733 88.3233 83.02 88.1233 83.22C87.9366 83.4067 87.7033 83.5 87.4233 83.5C87.1433 83.5 86.9033 83.4067 86.7033 83.22C86.5166 83.02 86.4233 82.7733 86.4233 82.48V69.72C86.4233 69.4267 86.5233 69.1867 86.7233 69C86.9233 68.8 87.1633 68.7 87.4433 68.7C87.7366 68.7 87.9699 68.8 88.1433 69C88.3299 69.1867 88.4233 69.4267 88.4233 69.72V82.48ZM96.7 72.8C97.6333 72.8 98.46 73.0333 99.18 73.5C99.9133 73.9667 100.493 74.6067 100.92 75.42C101.347 76.22 101.56 77.1533 101.56 78.22C101.56 79.2867 101.347 80.2333 100.92 81.06C100.493 81.8733 99.92 82.5133 99.2 82.98C98.48 83.4467 97.6667 83.68 96.76 83.68C96.2533 83.68 95.7733 83.6 95.32 83.44C94.8667 83.28 94.4667 83.0733 94.12 82.82C93.7733 82.5533 93.4867 82.2733 93.26 81.98C93.0467 81.6867 92.9133 81.4133 92.86 81.16L93.4 80.9V86.48C93.4 86.7733 93.3 87.0133 93.1 87.2C92.9133 87.4 92.68 87.5 92.4 87.5C92.1067 87.5 91.8667 87.4 91.68 87.2C91.4933 87.0133 91.4 86.7733 91.4 86.48V73.96C91.4 73.68 91.4933 73.44 91.68 73.24C91.8667 73.04 92.1067 72.94 92.4 72.94C92.68 72.94 92.9133 73.04 93.1 73.24C93.3 73.44 93.4 73.68 93.4 73.96V75.34L93.08 75.16C93.12 74.9067 93.2467 74.6467 93.46 74.38C93.6733 74.1 93.94 73.84 94.26 73.6C94.5933 73.36 94.9667 73.1667 95.38 73.02C95.8067 72.8733 96.2467 72.8 96.7 72.8ZM96.48 74.64C95.84 74.64 95.28 74.8 94.8 75.12C94.3333 75.4267 93.9667 75.8467 93.7 76.38C93.4333 76.9133 93.3 77.5267 93.3 78.22C93.3 78.9 93.4333 79.52 93.7 80.08C93.9667 80.6267 94.3333 81.06 94.8 81.38C95.28 81.6867 95.84 81.84 96.48 81.84C97.1067 81.84 97.6533 81.6867 98.12 81.38C98.5867 81.06 98.9533 80.6267 99.22 80.08C99.5 79.52 99.64 78.9 99.64 78.22C99.64 77.54 99.5 76.9333 99.22 76.4C98.9533 75.8533 98.5867 75.4267 98.12 75.12C97.6533 74.8 97.1067 74.64 96.48 74.64Z" fill="#1F1F39"/>
	<g filter="url(#filter1_d_413_2573)">
	<circle cx="188" cy="76" r="66" fill="#FFA8A8"/>
	<rect x="142" y="29.5" width="93" height="93" rx="46.5" fill="#FF6B6B"/>
	<path d="M176.352 71.568C176.232 71.76 176.104 71.904 175.968 72C175.84 72.096 175.672 72.144 175.464 72.144C175.28 72.144 175.08 72.088 174.864 71.976C174.656 71.856 174.416 71.724 174.144 71.58C173.88 71.436 173.576 71.308 173.232 71.196C172.888 71.076 172.496 71.016 172.056 71.016C171.296 71.016 170.728 71.18 170.352 71.508C169.984 71.828 169.8 72.264 169.8 72.816C169.8 73.168 169.912 73.46 170.136 73.692C170.36 73.924 170.652 74.124 171.012 74.292C171.38 74.46 171.796 74.616 172.26 74.76C172.732 74.896 173.212 75.052 173.7 75.228C174.188 75.396 174.664 75.596 175.128 75.828C175.6 76.06 176.016 76.356 176.376 76.716C176.744 77.076 177.04 77.516 177.264 78.036C177.488 78.548 177.6 79.168 177.6 79.896C177.6 80.704 177.46 81.46 177.18 82.164C176.9 82.868 176.492 83.484 175.956 84.012C175.428 84.532 174.772 84.944 173.988 85.248C173.212 85.544 172.328 85.692 171.336 85.692C170.792 85.692 170.236 85.636 169.668 85.524C169.108 85.412 168.564 85.256 168.036 85.056C167.508 84.848 167.012 84.604 166.548 84.324C166.084 84.044 165.68 83.732 165.336 83.388L166.536 81.492C166.632 81.356 166.756 81.244 166.908 81.156C167.068 81.06 167.24 81.012 167.424 81.012C167.664 81.012 167.904 81.088 168.144 81.24C168.392 81.392 168.668 81.56 168.972 81.744C169.284 81.928 169.64 82.096 170.04 82.248C170.44 82.4 170.912 82.476 171.456 82.476C172.192 82.476 172.764 82.316 173.172 81.996C173.58 81.668 173.784 81.152 173.784 80.448C173.784 80.04 173.672 79.708 173.448 79.452C173.224 79.196 172.928 78.984 172.56 78.816C172.2 78.648 171.788 78.5 171.324 78.372C170.86 78.244 170.384 78.104 169.896 77.952C169.408 77.792 168.932 77.6 168.468 77.376C168.004 77.144 167.588 76.844 167.22 76.476C166.86 76.1 166.568 75.636 166.344 75.084C166.12 74.524 166.008 73.836 166.008 73.02C166.008 72.364 166.14 71.724 166.404 71.1C166.668 70.476 167.056 69.92 167.568 69.432C168.08 68.944 168.708 68.556 169.452 68.268C170.196 67.972 171.048 67.824 172.008 67.824C172.544 67.824 173.064 67.868 173.568 67.956C174.08 68.036 174.564 68.16 175.02 68.328C175.476 68.488 175.9 68.684 176.292 68.916C176.692 69.14 177.048 69.396 177.36 69.684L176.352 71.568ZM197.141 76.752C197.141 78.016 196.921 79.192 196.481 80.28C196.049 81.368 195.437 82.316 194.645 83.124C193.853 83.924 192.897 84.552 191.777 85.008C190.665 85.464 189.429 85.692 188.069 85.692C186.709 85.692 185.469 85.464 184.349 85.008C183.229 84.552 182.269 83.924 181.469 83.124C180.677 82.316 180.061 81.368 179.621 80.28C179.189 79.192 178.973 78.016 178.973 76.752C178.973 75.488 179.189 74.312 179.621 73.224C180.061 72.136 180.677 71.192 181.469 70.392C182.269 69.592 183.229 68.964 184.349 68.508C185.469 68.052 186.709 67.824 188.069 67.824C189.429 67.824 190.665 68.056 191.777 68.52C192.897 68.976 193.853 69.604 194.645 70.404C195.437 71.204 196.049 72.148 196.481 73.236C196.921 74.324 197.141 75.496 197.141 76.752ZM192.989 76.752C192.989 75.888 192.877 75.112 192.653 74.424C192.429 73.728 192.105 73.14 191.681 72.66C191.265 72.18 190.753 71.812 190.145 71.556C189.537 71.3 188.845 71.172 188.069 71.172C187.285 71.172 186.585 71.3 185.969 71.556C185.361 71.812 184.845 72.18 184.421 72.66C184.005 73.14 183.685 73.728 183.461 74.424C183.237 75.112 183.125 75.888 183.125 76.752C183.125 77.624 183.237 78.408 183.461 79.104C183.685 79.792 184.005 80.376 184.421 80.856C184.845 81.336 185.361 81.704 185.969 81.96C186.585 82.208 187.285 82.332 188.069 82.332C188.845 82.332 189.537 82.208 190.145 81.96C190.753 81.704 191.265 81.336 191.681 80.856C192.105 80.376 192.429 79.792 192.653 79.104C192.877 78.408 192.989 77.624 192.989 76.752ZM209.188 71.568C209.068 71.76 208.94 71.904 208.804 72C208.676 72.096 208.508 72.144 208.3 72.144C208.116 72.144 207.916 72.088 207.7 71.976C207.492 71.856 207.252 71.724 206.98 71.58C206.716 71.436 206.412 71.308 206.068 71.196C205.724 71.076 205.332 71.016 204.892 71.016C204.132 71.016 203.564 71.18 203.188 71.508C202.82 71.828 202.636 72.264 202.636 72.816C202.636 73.168 202.748 73.46 202.972 73.692C203.196 73.924 203.488 74.124 203.848 74.292C204.216 74.46 204.632 74.616 205.096 74.76C205.568 74.896 206.048 75.052 206.536 75.228C207.024 75.396 207.5 75.596 207.964 75.828C208.436 76.06 208.852 76.356 209.212 76.716C209.58 77.076 209.876 77.516 210.1 78.036C210.324 78.548 210.436 79.168 210.436 79.896C210.436 80.704 210.296 81.46 210.016 82.164C209.736 82.868 209.328 83.484 208.792 84.012C208.264 84.532 207.608 84.944 206.824 85.248C206.048 85.544 205.164 85.692 204.172 85.692C203.628 85.692 203.072 85.636 202.504 85.524C201.944 85.412 201.4 85.256 200.872 85.056C200.344 84.848 199.848 84.604 199.384 84.324C198.92 84.044 198.516 83.732 198.172 83.388L199.372 81.492C199.468 81.356 199.592 81.244 199.744 81.156C199.904 81.06 200.076 81.012 200.26 81.012C200.5 81.012 200.74 81.088 200.98 81.24C201.228 81.392 201.504 81.56 201.808 81.744C202.12 81.928 202.476 82.096 202.876 82.248C203.276 82.4 203.748 82.476 204.292 82.476C205.028 82.476 205.6 82.316 206.008 81.996C206.416 81.668 206.62 81.152 206.62 80.448C206.62 80.04 206.508 79.708 206.284 79.452C206.06 79.196 205.764 78.984 205.396 78.816C205.036 78.648 204.624 78.5 204.16 78.372C203.696 78.244 203.22 78.104 202.732 77.952C202.244 77.792 201.768 77.6 201.304 77.376C200.84 77.144 200.424 76.844 200.056 76.476C199.696 76.1 199.404 75.636 199.18 75.084C198.956 74.524 198.844 73.836 198.844 73.02C198.844 72.364 198.976 71.724 199.24 71.1C199.504 70.476 199.892 69.92 200.404 69.432C200.916 68.944 201.544 68.556 202.288 68.268C203.032 67.972 203.884 67.824 204.844 67.824C205.38 67.824 205.9 67.868 206.404 67.956C206.916 68.036 207.4 68.16 207.856 68.328C208.312 68.488 208.736 68.684 209.128 68.916C209.528 69.14 209.884 69.396 210.196 69.684L209.188 71.568Z" fill="white"/>
	</g>
	</g>
	<defs>
	<filter id="filter0_b_413_2573" x="-4" y="2" width="266" height="148" filterUnits="userSpaceOnUse" color-interpolation-filters="sRGB">
	<feFlood flood-opacity="0" result="BackgroundImageFix"/>
	<feGaussianBlur in="BackgroundImageFix" stdDeviation="2"/>
	<feComposite in2="SourceAlpha" operator="in" result="effect1_backgroundBlur_413_2573"/>
	<feBlend mode="normal" in="SourceGraphic" in2="effect1_backgroundBlur_413_2573" result="shape"/>
	</filter>
	<filter id="filter1_d_413_2573" x="112" y="0" width="152" height="152" filterUnits="userSpaceOnUse" color-interpolation-filters="sRGB">
	<feFlood flood-opacity="0" result="BackgroundImageFix"/>
	<feColorMatrix in="SourceAlpha" type="matrix" values="0 0 0 0 0 0 0 0 0 0 0 0 0 0 0 0 0 0 127 0" result="hardAlpha"/>
	<feOffset/>
	<feGaussianBlur stdDeviation="5"/>
	<feComposite in2="hardAlpha" operator="out"/>
	<feColorMatrix type="matrix" values="0 0 0 0 0 0 0 0 0 0 0 0 0 0 0 0 0 0 0.3 0"/>
	<feBlend mode="normal" in2="BackgroundImageFix" result="effect1_dropShadow_413_2573"/>
	<feBlend mode="normal" in="SourceGraphic" in2="effect1_dropShadow_413_2573" result="shape"/>
	</filter>
	</defs>
</svg>
